<?xml version="1.0" standalone="no"?>
<!-- Generator: Adobe Fireworks 10, Export SVG Extension by Aaron Beall (http://fireworks.abeall.com) . Version: 0.6.1  -->
<!DOCTYPE svg PUBLIC "-//W3C//DTD SVG 1.1//EN" "http://www.w3.org/Graphics/SVG/1.1/DTD/svg11.dtd">
<svg id="Untitled-Str%E1nka%201" viewBox="0 0 50 150" style="background-color:#ffffff00" version="1.1"
	xmlns="http://www.w3.org/2000/svg" xmlns:xlink="http://www.w3.org/1999/xlink" xml:space="preserve"
	x="0px" y="0px" width="50px" height="150px"
>
	<g id="Vrstva%201">
		<g id="1">
			<g id="%u0143%EB%EE%E9%203">
				<g>
					<path d="M 39.0118 33.9674 C 42.7947 25.8184 42.0234 25.9205 42.0234 25.9205 C 40.7637 25.0311 39.9546 24.6172 36.7917 23.9232 C 34.3801 23.3937 32.3604 24.1481 30.0605 21.7869 C 28.8108 20.5033 28.6268 18.6133 28.5361 16.4294 C 28.4595 14.5895 26.1008 14.9084 25.0402 14.8065 L 25.0402 14.7823 L 24.7241 14.7811 L 24.709 14.7811 L 24.6942 14.7811 L 24.3782 14.7823 L 24.3782 14.8065 C 23.3174 14.9084 20.9589 14.5895 20.8822 16.4294 C 20.7915 18.6133 20.6075 20.5033 19.3575 21.7869 C 17.0581 24.1481 15.0382 23.3937 12.6266 23.9232 C 9.4636 24.6172 8.6545 25.0311 7.3948 25.9205 C 7.3948 25.9205 6.6232 25.8184 10.4063 33.9674 C 10.6205 34.4292 11.468 39.6442 12.9576 44.843 C 14.3856 49.8268 14.035 55.3719 14.1042 58.3187 C 14.1637 60.8575 13.7515 60.8909 13.3197 62.2784 C 12.4261 65.1495 11.0754 66.7083 10.7788 71.6301 C 10.7166 72.6592 13.5449 69.8339 16.801 71.2122 C 19.1255 72.1958 21.2509 77.9193 24.3782 78.3008 L 24.3782 78.3015 C 24.3813 78.3022 24.3843 78.3015 24.3875 78.3022 C 24.4935 78.3143 24.6005 78.3221 24.709 78.3217 C 24.8176 78.3221 24.9248 78.3143 25.0308 78.3022 C 25.0341 78.3015 25.0369 78.3022 25.0402 78.3015 L 25.0402 78.3008 C 28.1675 77.9193 30.2926 72.1958 32.6173 71.2122 C 35.8733 69.8339 38.7015 72.6592 38.6395 71.6301 C 38.3427 66.7083 36.9922 65.1495 36.0986 62.2784 C 35.6666 60.8909 35.2546 60.8575 35.314 58.3187 C 35.3833 55.3719 35.0325 49.8268 36.4607 44.843 C 37.9503 39.6442 38.7979 34.4292 39.0118 33.9674 Z" fill="#fdd3ae"/>
					<g id="legs">
						<path d="M 38.6395 71.6301 C 38.644 71.6058 38.1592 67.4424 37.0884 64.8856 C 36.526 64.3356 35.637 61.5882 31.8262 62.4619 C 26.5847 63.6638 26.5442 68.4427 26.1597 71.2458 C 25.9692 72.6328 25.8467 75.0955 25.8292 78.0865 C 25.7969 83.5786 26.1212 90.856 27.0419 96.5649 C 27.2458 97.8313 27.0176 99.0903 26.9685 100.2692 C 26.8015 104.2919 27.7382 105.9835 27.5814 108.3494 C 27.3903 111.2268 26.3516 113.7535 26.5804 119.2047 C 26.875 126.2184 28.8428 134.306 28.5713 139.0042 C 28.5084 140.1044 28.3628 141.2853 28.1575 143.5106 C 27.957 145.6719 27.1146 147.7122 27.1365 148.484 C 27.1963 150.7006 29.6826 149.8527 30.6658 149.7847 C 31.8602 149.7006 36.2754 149.1697 35.9344 147.4558 C 35.7117 146.3375 34.2097 145.2588 33.9624 143.3545 C 33.8247 142.2967 32.7639 140.029 32.7699 139.4537 C 32.8746 129.0842 35.2058 123.6364 35.4126 117.6321 C 35.5608 113.3262 35.3214 110.8473 35.0444 108.2505 C 34.7654 105.6525 35.9305 100.671 36.4607 97.3502 C 38.1173 86.9727 39.4878 81.1661 38.6395 71.6301 Z" fill="#fdd3ae"/>
						<path d="M 23.5891 78.0865 C 23.5715 75.0955 23.449 72.6328 23.2587 71.2458 C 22.8739 68.4427 22.8333 63.6638 17.5919 62.4619 C 13.7815 61.5882 12.8921 64.3356 12.3301 64.8856 C 11.259 67.4424 10.7742 71.6058 10.7788 71.6301 C 9.9305 81.1661 11.3008 86.9727 12.9576 97.3502 C 13.4878 100.671 14.6528 105.6525 14.3738 108.2505 C 14.0968 110.8473 13.8575 113.3262 14.0057 117.6321 C 14.2125 123.6364 16.5437 129.0842 16.6484 139.4537 C 16.6541 140.029 15.5935 142.2967 15.4558 143.3545 C 15.2086 145.2588 13.7067 146.3375 13.4839 147.4558 C 13.1428 149.1697 17.5581 149.7006 18.7524 149.7847 C 19.7356 149.8527 22.2218 150.7006 22.2816 148.484 C 22.3037 147.7122 21.4612 145.6719 21.2607 143.5106 C 21.0555 141.2853 20.9097 140.1044 20.847 139.0042 C 20.5754 134.306 22.5432 126.2184 22.8376 119.2047 C 23.0665 113.7535 22.0278 111.2268 21.8369 108.3494 C 21.6802 105.9835 22.6166 104.2919 22.4498 100.2692 C 22.4006 99.0903 22.1725 97.8313 22.3765 96.5649 C 23.2971 90.856 23.6213 83.5786 23.5891 78.0865 Z" fill="#fdd3ae"/>
					</g>
					<g id="left%20hand">
						<path d="M 45.7744 60.1339 C 45.2172 60.2405 42.822 59.0942 42.8052 55.2018 C 42.7971 53.2578 39.6055 46.5513 38.0302 36.2496 C 37.7661 34.5215 36.0723 32.1766 35.9641 31.6118 C 35.2192 27.7261 36.7296 24.7296 36.7917 23.9232 C 42.6516 24.5108 44.2948 27.574 44.5159 32.4793 C 44.6594 35.6746 46.1316 38.3919 46.9985 42.1884 C 47.7758 45.5925 48.3149 51.4758 48.2878 55.252 C 48.281 56.2132 48.2947 59.6511 45.7744 60.1339 Z" fill="#fdd3ae"/>
						<path d="M 48.6589 73.0441 C 48.6699 71.7487 47.717 71.0197 46.9294 71.0186 C 46.1077 71.0174 46.0573 71.8479 45.3002 73.0441 C 44.8029 74.4165 43.3469 74.7298 42.5198 78.7706 C 42.2974 79.8563 42.0494 80.9056 41.9213 81.864 C 41.9071 81.9569 42.7932 82.2543 43.173 81.2313 C 44.0941 78.7635 44.4309 79.1393 44.9863 78.2924 C 44.885 79.3984 45.278 80.4736 44.01 83.047 C 43.2087 84.6734 42.1499 85.5623 42.8601 86.2648 C 43.5708 86.966 46.9985 84.9163 48.7881 80.292 C 49.5283 78.3796 49.1108 74.9717 48.6589 73.0441 Z" fill="#fdd3ae"/>
						<path d="M 45.3002 73.0441 C 45.584 74.5723 46.1853 74.2537 46.858 74.2725 C 47.5308 74.2907 48.5238 74.1958 48.6589 73.0441 C 48.743 72.3226 48.9001 71.1354 48.9849 70.2484 C 49.9663 59.9121 49.1958 55.0252 47.5294 51.8955 C 47.0063 50.9133 46.2046 49.9265 44.7913 50.4619 C 42.71 51.2492 42.7767 54.068 42.8052 55.2018 C 42.9662 61.5464 44.3503 67.1172 45.0154 71.2188 C 45.1223 71.878 45.3002 73.0441 45.3002 73.0441 Z" fill="#fdd3ae"/>
					</g>
					<g id="right%20hand">
						<path d="M 3.6439 60.1339 C 4.2012 60.2405 6.5964 59.0942 6.6129 55.2018 C 6.6212 53.2578 9.8127 46.5513 11.3882 36.2496 C 11.6523 34.5215 13.3458 32.1766 13.4541 31.6118 C 14.1989 27.7261 12.6887 24.7296 12.6266 23.9232 C 6.7666 24.5108 5.1233 27.574 4.9026 32.4793 C 4.7588 35.6746 3.2864 38.3919 2.4199 42.1884 C 1.6427 45.5925 1.1033 51.4758 1.1304 55.252 C 1.1372 56.2132 1.1237 59.6511 3.6439 60.1339 Z" fill="#fdd3ae"/>
						<path d="M 0.7595 73.0441 C 0.7485 71.7487 1.7014 71.0197 2.4888 71.0186 C 3.3105 71.0174 3.3608 71.8479 4.1183 73.0441 C 4.615 74.4165 6.0712 74.7298 6.8986 78.7706 C 7.121 79.8563 7.3689 80.9056 7.4968 81.864 C 7.5112 81.9569 6.625 82.2543 6.2451 81.2313 C 5.3242 78.7635 4.9874 79.1393 4.432 78.2924 C 4.5332 79.3984 4.1404 80.4736 5.4082 83.047 C 6.2096 84.6734 7.2683 85.5623 6.5582 86.2648 C 5.8475 86.966 2.4197 84.9163 0.6299 80.292 C -0.11 78.3796 0.3074 74.9717 0.7595 73.0441 Z" fill="#fdd3ae"/>
						<path d="M 4.1183 73.0441 C 3.8344 74.5723 3.233 74.2537 2.5603 74.2725 C 1.8876 74.2907 0.8947 74.1958 0.7595 73.0441 C 0.6754 72.3226 0.5179 71.1354 0.4336 70.2484 C -0.5481 59.9121 0.2224 55.0252 1.8889 51.8955 C 2.4119 50.9133 3.2134 49.9265 4.6267 50.4619 C 6.7079 51.2492 6.6417 54.068 6.6129 55.2018 C 6.4523 61.5464 5.0679 67.1172 4.4028 71.2188 C 4.2959 71.878 4.1183 73.0441 4.1183 73.0441 Z" fill="#fdd3ae"/>
					</g>
				</g>
				<g>
					<path d="M 32.4624 6.0745 C 32.3689 5.5212 32.5168 5.0298 32.3408 4.4911 C 32.208 4.0835 31.802 3.7624 31.5916 3.4135 C 31.3287 2.9772 31.244 2.6224 30.9485 2.2021 C 30.6223 1.7393 30.2008 1.6626 29.7579 1.3926 C 29.1418 1.0164 28.8879 0.6271 28.2012 0.4672 C 27.0233 0.1924 25.9492 -0.0294 24.709 0.0032 C 23.469 -0.0294 22.3948 0.1924 21.2172 0.4672 C 20.5302 0.6271 20.2765 1.0164 19.6604 1.3926 C 19.2175 1.6626 18.7958 1.7393 18.4696 2.2021 C 18.1743 2.6224 18.0896 2.9772 17.8267 3.4135 C 17.6162 3.7624 17.2102 4.0835 17.0773 4.4911 C 16.9015 5.0298 17.0492 5.5212 16.9557 6.0745 C 16.8674 6.595 16.9595 7.1119 17.009 7.6539 C 17.0586 8.1889 17.3428 8.6478 17.2583 9.2288 C 17.1753 9.8045 17.3163 10.4101 17.5803 10.9548 C 17.9353 11.687 17.646 12.0177 17.8906 12.7903 C 18.1768 13.6964 18.5776 14.5807 19.1589 15.3422 C 19.8115 16.1971 20.3767 16.8991 21.4392 17.1721 L 24.709 17.3326 L 27.979 17.1721 C 29.0415 16.8991 29.6067 16.1971 30.2594 15.3422 C 30.8406 14.5807 31.2415 13.6964 31.5275 12.7903 C 31.7723 12.0177 31.483 11.687 31.8379 10.9548 C 32.1021 10.4101 32.2429 9.8045 32.1598 9.2288 C 32.0754 8.6478 32.3596 8.1889 32.4089 7.6539 C 32.4589 7.1119 32.5507 6.595 32.4624 6.0745 Z" fill="#7f6450"/>
					<path opacity="0.098" d="M 28.5361 16.4294 C 28.5266 16.2047 28.4823 16.0131 28.4113 15.848 C 28.0624 16.0714 27.665 16.3266 27.2012 16.6479 C 26.5762 17.0807 25.3418 17.4744 24.8011 17.5138 L 24.8011 17.5043 C 24.7715 17.5109 24.7449 17.5145 24.7185 17.5176 C 24.7156 17.5173 24.7124 17.5165 24.709 17.5161 C 24.7061 17.5165 24.7029 17.5173 24.6998 17.5176 C 24.6732 17.5145 24.6467 17.5109 24.6169 17.5043 L 24.6169 17.5138 C 24.0765 17.4744 22.8418 17.0807 22.2169 16.6479 C 21.7532 16.3266 21.3557 16.0714 21.0071 15.848 C 20.936 16.0131 20.8916 16.2047 20.8822 16.4294 C 20.8479 17.2571 20.7998 18.042 20.6858 18.7684 C 21.5791 20.3359 23.0181 21.9108 24.709 21.9108 C 26.4001 21.9108 27.8391 20.3359 28.7325 18.7684 C 28.6184 18.042 28.5703 17.2571 28.5361 16.4294 Z" fill="#221e1f"/>
					<path d="M 30.3457 6.9401 C 30.1174 6.0836 29.9517 5.7382 29.5724 5.537 C 28.8451 5.1512 27.4657 5.7094 24.709 5.6448 C 21.9526 5.7094 20.5732 5.1512 19.8459 5.537 C 19.4667 5.7382 19.3008 6.0836 19.0726 6.9401 C 18.853 7.7641 18.5109 9.6995 18.6287 10.3315 C 19.0752 12.7271 18.8278 15.3422 19.7356 16.7975 C 20.1785 17.5074 22.1055 19.5872 22.4646 19.8863 C 23.0262 20.3538 23.7307 20.6598 24.6716 20.6598 C 24.684 20.6598 24.6978 20.6616 24.709 20.6616 C 24.7205 20.6616 24.7344 20.6598 24.7466 20.6598 C 25.6873 20.6598 26.3921 20.3538 26.9536 19.8863 C 27.3127 19.5872 29.2397 17.5074 29.6826 16.7975 C 30.5903 15.3422 30.3431 12.7271 30.7896 10.3315 C 30.9075 9.6995 30.5652 7.7641 30.3457 6.9401 Z" fill="#fdd3ae"/>
					<path d="M 18.9006 10.9792 C 18.9006 10.9792 18.3757 10.0747 18.189 10.8181 C 17.8447 12.1917 19.0691 13.7153 19.1228 13.9886 C 19.1755 14.262 18.9006 10.9792 18.9006 10.9792 Z" fill="#fdd3ae"/>
					<path d="M 30.5176 10.9792 C 30.5176 10.9792 31.0427 10.0747 31.2295 10.8181 C 31.5735 12.1917 30.3489 13.7153 30.2953 13.9886 C 30.2429 14.262 30.5176 10.9792 30.5176 10.9792 Z" fill="#fdd3ae"/>
				</g>
			</g>
			<path d="M 37.7788 39.6281 C 37.371 38.3899 37.0859 36.6686 37.0125 34.5052 C 36.9091 31.4534 37.6135 26.6609 37.8713 24.1714 C 37.8174 24.1582 37.7573 24.1447 37.7014 24.1313 C 37.6864 24.1854 37.6775 24.2184 37.6779 24.2177 C 37.6864 24.1876 37.6924 24.1603 37.7004 24.1311 C 37.4192 24.0641 37.1208 23.9954 36.7917 23.9232 C 35.874 23.7216 35.0693 23.7178 34.2972 23.6604 C 33.1633 27.3104 30.4297 33.4814 24.887 33.6168 L 24.887 33.6153 C 24.8643 33.6163 24.8419 33.6175 24.8193 33.6188 L 24.8193 33.6182 C 24.8035 33.619 24.7874 33.6199 24.7715 33.6205 C 24.7505 33.6208 24.7297 33.6226 24.709 33.6229 C 24.6885 33.6226 24.6677 33.6208 24.6467 33.6205 C 24.6309 33.6199 24.6147 33.619 24.5989 33.6182 L 24.5989 33.6188 C 24.5762 33.6175 24.554 33.6163 24.5314 33.6153 L 24.5314 33.6168 C 18.9885 33.4814 16.2549 27.3104 15.1211 23.6604 C 14.3491 23.7178 13.5443 23.7216 12.6266 23.9232 C 12.2975 23.9954 11.9991 24.0641 11.7179 24.1311 C 11.7258 24.1603 11.7319 24.1876 11.7405 24.2177 C 11.7407 24.2184 11.7316 24.1854 11.7168 24.1313 C 11.661 24.1447 11.6008 24.1582 11.5469 24.1714 C 11.8048 26.6609 12.5092 31.4534 12.4058 34.5052 C 12.3324 36.6686 12.0472 38.3899 11.6393 39.6281 C 12.0018 41.2358 12.4409 43.0403 12.9576 44.843 C 14.3856 49.8268 14.035 55.3719 14.1042 58.3187 C 14.1637 60.8575 13.7515 60.8909 13.3197 62.2784 C 12.8479 63.7943 12.2488 64.9446 11.7445 66.4169 L 24.709 66.4169 L 37.6736 66.4169 C 37.1692 64.9446 36.5706 63.7943 36.0986 62.2784 C 35.6666 60.8909 35.2546 60.8575 35.314 58.3187 C 35.3833 55.3719 35.0325 49.8268 36.4607 44.843 C 36.9773 43.0403 37.4163 41.2358 37.7788 39.6281 Z" fill="#689f38"/>
			<path d="M 38.6395 71.6301 C 38.4326 68.1986 37.7136 66.4019 36.9939 64.6554 C 35.1017 65.0326 31.1868 65.561 24.792 65.5625 L 24.792 65.5608 C 24.7648 65.5612 24.7368 65.5615 24.709 65.562 C 24.6813 65.5615 24.6536 65.5612 24.6263 65.5608 L 24.6263 65.5625 C 18.2317 65.561 14.3168 65.0326 12.4241 64.6554 C 11.7048 66.4019 10.9857 68.1986 10.7788 71.6301 C 10.4994 74.7688 10.4619 77.5028 10.5945 80.1298 C 11.5977 80.4858 13.3066 80.9541 15.6472 81.0917 C 21.2743 81.4224 23.584 80.1409 23.5845 80.1409 C 23.5845 80.1406 23.5845 80.1403 23.5845 80.1399 L 23.5845 80.119 C 23.5879 79.7698 23.5898 79.4253 23.5907 79.0865 C 23.5914 78.7477 23.5908 78.4132 23.5891 78.0865 L 23.5891 78.0862 C 23.6819 78.1249 23.7765 78.1538 23.8711 78.1841 C 24.0375 78.2363 24.2057 78.28 24.3782 78.3008 L 24.3782 78.3015 C 24.3813 78.3022 24.3843 78.3015 24.3875 78.3022 C 24.4935 78.3143 24.6005 78.3221 24.709 78.3217 C 24.8176 78.3221 24.9248 78.3143 25.0308 78.3022 C 25.0341 78.3015 25.0369 78.3022 25.0402 78.3015 L 25.0402 78.3008 C 25.2124 78.28 25.3809 78.2363 25.547 78.1841 C 25.6418 78.1538 25.7365 78.1249 25.8292 78.0862 L 25.8292 78.0865 C 25.8274 78.4132 25.827 78.7477 25.8275 79.0865 C 25.8282 79.4253 25.8303 79.7698 25.8337 80.119 L 25.8337 80.1399 C 25.8337 80.1403 25.8337 80.1406 25.8337 80.1409 C 25.8341 80.1409 28.1442 81.4224 33.771 81.0917 C 36.1116 80.9541 37.8206 80.4858 38.8237 80.1298 C 38.9563 77.5028 38.9187 74.7688 38.6395 71.6301 Z" fill="#6b6a67"/>
		</g>
	</g>
</svg>