<?xml version="1.0" standalone="no"?>
<!-- Generator: Adobe Fireworks 10, Export SVG Extension by Aaron Beall (http://fireworks.abeall.com) . Version: 0.6.1  -->
<!DOCTYPE svg PUBLIC "-//W3C//DTD SVG 1.1//EN" "http://www.w3.org/Graphics/SVG/1.1/DTD/svg11.dtd">
<svg id="Untitled-Str%E1nka%201" viewBox="0 0 52 150" style="background-color:#ffffff00" version="1.1"
	xmlns="http://www.w3.org/2000/svg" xmlns:xlink="http://www.w3.org/1999/xlink" xml:space="preserve"
	x="0px" y="0px" width="52px" height="150px"
>
	<g id="Vrstva%201">
		<g id="2">
			<g id="%u0143%EB%EE%E9%203">
				<path d="M 10.5271 37.9224 C 6.7443 29.7734 8.4243 25.7351 8.4243 25.7351 C 9.533 25.5146 10.6068 24.9088 13.6565 23.9232 C 16.0057 23.1639 18.8175 22.8702 19.8123 21.3979 C 20.8149 19.9135 20.8069 19.4008 20.8977 17.2169 C 20.9744 15.3768 24.3473 14.9084 25.408 14.8065 L 25.408 14.7823 L 25.7241 14.7811 L 25.7391 14.7811 L 25.7539 14.7811 L 26.0701 14.7823 L 26.0701 14.8065 C 27.1307 14.9084 30.5037 15.3768 30.5803 17.2169 C 30.6711 19.4008 30.6631 19.9135 31.6658 21.3979 C 32.6606 22.8702 35.4723 23.1639 37.8215 23.9232 C 40.8713 24.9088 41.9451 25.5146 43.0537 25.7351 C 43.0537 25.7351 44.7339 29.7734 40.9507 37.9224 C 40.7366 38.3843 40.3469 42.0629 39.3113 44.5363 C 37.3085 49.3187 38.0684 55.3719 37.999 58.3187 C 37.9397 60.8575 38.3517 60.8909 38.7837 62.2784 C 39.6772 65.1495 40.0347 66.7083 40.3314 71.6301 C 40.3936 72.6592 36.9032 69.8339 33.6472 71.2122 C 31.3225 72.1958 29.1973 77.9193 26.0701 78.3008 L 26.0701 78.3015 C 26.0669 78.3022 26.064 78.3015 26.0608 78.3022 C 25.9546 78.3143 25.8475 78.3221 25.7391 78.3217 C 25.6304 78.3221 25.5234 78.3143 25.4172 78.3022 C 25.4141 78.3015 25.4113 78.3022 25.408 78.3015 L 25.408 78.3008 C 22.2808 77.9193 20.1555 72.1958 17.8308 71.2122 C 14.575 69.8339 11.0845 72.6592 11.1467 71.6301 C 11.4434 66.7083 11.8009 65.1495 12.6943 62.2784 C 13.1263 60.8909 13.5383 60.8575 13.479 58.3187 C 13.4097 55.3719 14.1696 49.3187 12.1667 44.5363 C 11.131 42.0629 10.7415 38.3843 10.5271 37.9224 Z" fill="#fdd3ae"/>
				<path opacity="0.098" d="M 25.7454 21.7869 C 24.0544 21.7869 21.8677 19.9642 20.8427 18.4387 C 20.8595 18.1364 20.8726 17.7959 20.8892 17.3989 C 20.9154 16.7684 21.3289 16.2992 21.9036 15.9503 C 22.2805 16.1917 22.7196 16.4706 23.2384 16.8301 C 23.8632 17.2629 25.0979 17.6564 25.6384 17.6958 L 25.6384 17.6865 C 25.668 17.6931 25.6946 17.6965 25.7211 17.6996 C 25.7476 17.6965 25.7742 17.6931 25.8037 17.6865 L 25.8037 17.6958 C 26.3444 17.6564 27.5789 17.2629 28.2037 16.8301 C 28.7268 16.4678 29.1687 16.1873 29.5476 15.9444 C 30.1276 16.2938 30.5452 16.765 30.5718 17.3989 C 30.5879 17.7848 30.6008 18.1165 30.6171 18.4126 C 29.595 19.9386 27.4236 21.7869 25.7454 21.7869 Z" fill="#221e1f"/>
				<g>
					<path d="M 27.9983 100.2692 C 28.0475 99.0903 28.2756 97.8313 28.0718 96.5649 C 27.1511 90.856 26.8271 83.5786 26.8588 78.0865 C 26.8762 75.0955 26.999 72.6328 27.1895 71.2458 C 27.5743 68.4427 26.6409 66.4321 33.5997 65.0942 C 37.4388 64.3561 38.8118 63.7601 39.3739 64.3101 C 39.5767 65.0923 39.7391 65.8641 39.8757 66.7667 C 40.0405 68.5626 40.1925 70.2008 40.3269 71.7128 C 41.1755 81.2488 41.3342 85.9674 39.6772 96.3449 C 39.1471 99.6663 36.7883 105.6525 37.0674 108.2505 C 37.3444 110.8473 37.9366 113.6506 37.8768 117.7297 C 37.7872 123.8922 34.8976 129.0842 34.7928 139.4537 C 34.7871 140.029 35.8477 142.2967 35.9854 143.3545 C 36.2328 145.2588 37.4036 146.3375 37.6262 147.4558 C 37.9674 149.1697 33.552 149.7006 32.3577 149.7847 C 31.3745 149.8527 28.8883 150.7006 28.8285 148.484 C 28.8064 147.7122 29.6489 145.6719 29.8494 143.5106 C 30.0547 141.2853 30.2004 140.1044 30.2633 139.0042 C 30.5347 134.306 27.9048 126.2184 27.6105 119.2047 C 27.3815 113.7535 28.4202 111.2268 28.6113 108.3494 C 28.7681 105.9835 27.8315 104.2919 27.9983 100.2692 Z" fill="#fdd3ae"/>
					<path d="M 11.1509 71.7128 C 11.1462 71.6886 11.1447 71.661 11.1467 71.6301 C 11.2747 69.509 11.4138 68.0129 11.6023 66.7667 C 11.7389 65.8641 11.9014 65.0923 12.1041 64.3101 C 12.6663 63.7601 14.0392 64.3561 17.8783 65.0942 C 24.8372 66.4321 23.9038 68.4427 24.2886 71.2458 C 24.4788 72.6328 24.6014 75.0955 24.6189 78.0865 C 24.6512 83.5786 24.3269 90.856 23.4063 96.5649 C 23.2024 97.8313 23.4305 99.0903 23.4797 100.2692 C 23.6465 104.2919 22.71 105.9835 22.8667 108.3494 C 23.0579 111.2268 24.0966 113.7535 23.8676 119.2047 C 23.5732 126.2184 20.9434 134.306 21.2148 139.0042 C 21.2776 140.1044 21.4235 141.2853 21.6287 143.5106 C 21.8291 145.6719 22.6716 147.7122 22.6495 148.484 C 22.5897 150.7006 20.1035 149.8527 19.1204 149.7847 C 17.9258 149.7006 13.5106 149.1697 13.8518 147.4558 C 14.0745 146.3375 15.2452 145.2588 15.4927 143.3545 C 15.6304 142.2967 16.6909 140.029 16.6853 139.4537 C 16.5806 129.0842 13.6908 123.8922 13.6012 117.7297 C 13.5415 113.6506 14.1337 110.8473 14.4106 108.2505 C 14.6896 105.6525 12.3311 99.6663 11.8009 96.3449 C 10.1442 85.9674 10.3025 81.2488 11.1509 71.7128 Z" fill="#fdd3ae"/>
					<g id="left%20hand">
						<path d="M 2.2358 58.0347 C 1.8455 59.0803 3.127 59.8911 4.3428 60.1339 C 4.8994 60.2442 5.8534 59.593 7.5807 56.104 C 9.4187 52.3904 11.519 41.9731 12.0869 36.2496 C 12.2595 34.5101 14.0448 32.1766 14.1531 31.6118 C 14.8979 27.7261 12.7925 25.0374 12.7302 24.2307 C 10.3386 24.3274 5.936 24.9719 4.7188 28.8008 C 4.3906 29.8331 3.8022 31.3484 3.8331 34.5044 C 3.8569 36.9105 3.6189 38.2373 2.5902 41.439 C 1.4711 44.9221 1.4711 51.4758 1.4983 55.252 C 1.5051 56.2132 2.5223 57.2692 2.2358 58.0347 Z" fill="#fdd3ae"/>
						<path d="M 0.8446 74.4165 C 0.8337 73.1212 1.9399 73.0391 2.7034 72.8474 C 3.8289 72.5656 4.2285 72.8207 4.9861 74.0168 C 5.4829 75.3892 6.7703 75.1432 7.5974 79.1837 C 7.8198 80.2694 8.0679 81.3192 8.1958 82.2779 C 8.21 82.3701 7.3239 82.6675 6.9441 81.6447 C 6.0229 79.1766 5.6863 79.5524 5.1309 78.7059 C 5.2321 79.8115 4.8394 80.8871 6.1072 83.4601 C 6.9086 85.0865 7.9672 85.9761 7.2571 86.678 C 6.5464 87.3792 3.1184 85.3295 1.3289 80.7054 C 0.5889 78.7931 0.1343 76.5035 0.8446 74.4165 Z" fill="#fdd3ae"/>
						<path d="M 5.0359 74.2887 C 5.0359 74.2887 5.0359 74.288 5.0359 74.2874 C 4.752 75.8155 3.9319 75.8367 3.259 75.8555 C 2.5864 75.8737 0.9797 75.5682 0.8446 74.4165 C 0.7606 73.6952 0.8745 72.8453 0.79 71.9581 C -0.1919 61.622 -0.4124 57.6152 2.5876 53.4787 C 3.2411 52.5777 4.7662 51.0515 6.1797 51.5869 C 8.2609 52.3743 8.0594 56.0383 8.0306 57.1721 C 7.87 63.5167 5.7667 68.7006 5.1017 72.8019 C 4.9948 73.4614 5.0042 73.9263 5.0359 74.2887 Z" fill="#fdd3ae"/>
					</g>
					<g id="left%20hand2">
						<path d="M 49.2422 58.0347 C 49.6326 59.0803 48.3511 59.8911 47.1353 60.1339 C 46.5786 60.2442 45.6246 59.593 43.8973 56.104 C 42.0593 52.3904 39.9591 41.9731 39.3911 36.2496 C 39.2185 34.5101 37.4333 32.1766 37.325 31.6118 C 36.5802 27.7261 38.6857 25.0374 38.7478 24.2307 C 41.1394 24.3274 45.542 24.9719 46.7595 28.8008 C 47.0875 29.8331 47.6759 31.3484 47.6449 34.5044 C 47.6211 36.9105 47.8591 38.2373 48.8878 41.439 C 50.007 44.9221 50.007 51.4758 49.9797 55.252 C 49.9729 56.2132 48.9557 57.2692 49.2422 58.0347 Z" fill="#fdd3ae"/>
						<path d="M 50.6334 74.4165 C 50.6444 73.1212 49.5382 73.0391 48.7747 72.8474 C 47.6493 72.5656 47.2495 72.8207 46.4921 74.0168 C 45.9951 75.3892 44.7079 75.1432 43.8807 79.1837 C 43.6582 80.2694 43.4104 81.3192 43.2822 82.2779 C 43.2681 82.3701 44.1542 82.6675 44.5339 81.6447 C 45.4551 79.1766 45.7919 79.5524 46.3472 78.7059 C 46.2461 79.8115 46.6387 80.8871 45.3708 83.4601 C 44.5696 85.0865 43.5107 85.9761 44.2211 86.678 C 44.9316 87.3792 48.3596 85.3295 50.1492 80.7054 C 50.8892 78.7931 51.3438 76.5035 50.6334 74.4165 Z" fill="#fdd3ae"/>
						<path d="M 46.4421 74.2887 C 46.4421 74.2887 46.4421 74.288 46.4421 74.2874 C 46.7261 75.8155 47.5461 75.8367 48.219 75.8555 C 48.8917 75.8737 50.4984 75.5682 50.6334 74.4165 C 50.7175 73.6952 50.6036 72.8453 50.6882 71.9581 C 51.6699 61.622 51.8904 57.6152 48.8904 53.4787 C 48.2369 52.5777 46.7118 51.0515 45.2985 51.5869 C 43.2173 52.3743 43.4187 56.0383 43.4474 57.1721 C 43.608 63.5167 45.7114 68.7006 46.3763 72.8019 C 46.4833 73.4614 46.4739 73.9263 46.4421 74.2887 Z" fill="#fdd3ae"/>
					</g>
				</g>
				<g>
					<path d="M 17.9858 6.0745 C 18.0791 5.5212 17.9314 5.0298 18.1072 4.4911 C 18.24 4.0835 18.6462 3.7624 18.8566 3.4135 C 19.1194 2.9772 19.2041 2.6224 19.4996 2.2021 C 19.8257 1.7393 20.2473 1.6626 20.6902 1.3926 C 21.3064 1.0164 21.5602 0.6271 22.2471 0.4672 C 23.4247 0.1924 24.499 -0.0294 25.7391 0.0032 C 26.9789 -0.0294 28.0535 0.1924 29.231 0.4672 C 29.918 0.6271 30.1716 1.0164 30.7878 1.3926 C 31.2307 1.6626 31.6522 1.7393 31.9783 2.2021 C 32.2739 2.6224 32.3583 2.9772 32.6216 3.4135 C 32.8318 3.7624 33.2377 4.0835 33.3708 4.4911 C 33.5466 5.0298 33.3989 5.5212 33.4923 6.0745 C 33.5806 6.595 33.8198 7.1119 33.7697 7.6539 C 33.7207 8.1889 33.4368 8.6478 33.5208 9.2288 C 33.6035 9.8045 33.463 10.4101 33.1987 10.9548 C 32.8438 11.687 33.1329 12.0177 32.8884 12.7903 C 32.6021 13.6964 32.2019 14.5807 31.6206 15.3422 C 30.9678 16.1971 30.0715 16.8991 29.0093 17.1721 L 25.7391 17.3326 L 22.4692 17.1721 C 21.4066 16.8991 20.5104 16.1971 19.8579 15.3422 C 19.2766 14.5807 18.8756 13.6964 18.5896 12.7903 C 18.3447 12.0177 18.634 11.687 18.2793 10.9548 C 18.0151 10.4101 17.8741 9.8045 17.9573 9.2288 C 18.0417 8.6478 17.7574 8.1889 17.708 7.6539 C 17.6582 7.1119 17.8975 6.595 17.9858 6.0745 Z" fill="#7f6450"/>
					<g>
						<path d="M 19.7717 10.9792 C 19.7717 10.9792 19.2467 10.0747 19.0599 10.8181 C 18.7156 12.1917 19.9402 13.7153 19.9939 13.9886 C 20.0466 14.262 19.7717 10.9792 19.7717 10.9792 Z" fill="#fdd3ae"/>
						<path d="M 31.7059 10.9792 C 31.7059 10.9792 32.2313 10.0747 32.4181 10.8181 C 32.7625 12.1917 31.5378 13.7153 31.4841 13.9886 C 31.4312 14.262 31.7059 10.9792 31.7059 10.9792 Z" fill="#fdd3ae"/>
						<path d="M 20.1025 6.9401 C 20.3307 6.0836 20.4966 5.7382 20.8757 5.537 C 21.603 5.1512 22.9824 5.7094 25.7391 5.6448 C 28.4952 5.7094 29.875 5.1512 30.6023 5.537 C 30.9814 5.7382 31.1473 6.0836 31.3755 6.9401 C 31.5951 7.7641 31.9783 8.7541 31.9783 10.0493 C 31.9783 12.4206 31.642 14.6277 31.0905 16.6523 C 30.6819 18.1497 29.927 18.5539 27.9839 19.8863 C 27.4045 20.2833 26.2427 20.6418 25.7765 20.6598 L 25.7765 20.6598 C 25.7642 20.6603 25.7504 20.6616 25.7391 20.6616 C 25.7277 20.6616 25.7139 20.6603 25.7015 20.6598 L 25.7015 20.6598 C 25.2354 20.6418 24.0739 20.2833 23.4946 19.8863 C 21.551 18.5539 20.7959 18.1497 20.3879 16.6523 C 19.8358 14.6277 19.4996 12.4206 19.4996 10.0493 C 19.4996 8.7541 19.8829 7.7641 20.1025 6.9401 Z" fill="#fdd3ae"/>
						<g id="eyes">
							<g>
								<g>
									<path d="M 22.1865 10.8547 C 22.1895 10.913 22.2412 10.9579 22.3032 10.9547 L 22.3032 10.9547 C 22.3647 10.952 22.413 10.9022 22.4097 10.8438 L 22.4077 10.8053 C 22.4048 10.7469 22.3522 10.7021 22.2914 10.705 L 22.2914 10.705 C 22.229 10.7079 22.1814 10.7577 22.1844 10.816 L 22.1865 10.8547 Z" fill="#ffffff"/>
								</g>
							</g>
						</g>
						<path d="M 31.7815 10.9123 C 31.7815 10.9123 32.4817 10.1404 32.7301 10.775 C 33.1892 11.9468 31.5576 13.2468 31.4868 13.48 C 31.4163 13.7134 31.7815 10.9123 31.7815 10.9123 Z" fill="#fdd3ae"/>
					</g>
				</g>
			</g>
			<path d="M 13.4357 34.5052 C 13.5537 31.0248 12.8733 26.2344 12.7502 24.2245 C 12.7568 24.2221 12.7639 24.2199 12.7703 24.2177 C 12.901 24.1732 13.035 24.1279 13.1738 24.0817 C 13.33 24.0297 13.489 23.9772 13.6565 23.9232 C 14.0289 23.8029 14.4128 23.6949 14.7992 23.5912 C 14.8462 23.5788 14.8926 23.5662 14.9395 23.5538 C 15.1904 23.4873 15.4403 23.4227 15.6902 23.3581 C 15.803 23.3292 15.9155 23.2997 16.0273 23.2704 C 16.0291 23.27 16.0305 23.2696 16.0322 23.2693 C 17.0876 26.8493 19.8154 33.4764 25.5613 33.6168 L 25.5613 33.6153 C 25.5839 33.6163 25.6061 33.6175 25.6288 33.6188 L 25.6288 33.6182 C 25.6447 33.619 25.6609 33.6199 25.6766 33.6205 C 25.6978 33.6208 25.7184 33.6226 25.7391 33.6229 C 25.7596 33.6226 25.7804 33.6208 25.8014 33.6205 C 25.8173 33.6199 25.8335 33.619 25.8492 33.6182 L 25.8492 33.6188 C 25.8718 33.6175 25.8943 33.6163 25.9167 33.6153 L 25.9167 33.6168 C 31.6626 33.4764 34.3904 26.8493 35.4458 23.2693 C 35.4475 23.2696 35.4491 23.27 35.4507 23.2704 C 35.5625 23.2997 35.675 23.3292 35.7878 23.3581 C 36.0378 23.4227 36.2876 23.4873 36.5386 23.5538 C 36.5854 23.5662 36.6318 23.5788 36.6788 23.5912 C 37.0652 23.6949 37.4491 23.8029 37.8215 23.9232 C 37.989 23.9772 38.1482 24.0297 38.3042 24.0817 C 38.443 24.1279 38.577 24.1732 38.7078 24.2177 C 38.7141 24.2199 38.7212 24.2221 38.7278 24.2245 C 38.6049 26.2344 37.9243 31.0248 38.0424 34.5052 C 38.1826 38.6371 39.0905 41.1742 40.1637 41.7618 L 40.1637 41.7621 C 40.1637 41.7625 40.1637 41.7626 40.1633 41.763 C 40.1094 41.9943 40.0519 42.2276 39.9907 42.4604 C 39.9885 42.4689 39.9866 42.4772 39.9844 42.4857 C 39.9243 42.713 39.8607 42.9397 39.7939 43.1636 C 39.7893 43.1784 39.7848 43.1934 39.7805 43.208 C 39.713 43.4309 39.6423 43.6506 39.5671 43.8651 C 39.5634 43.8762 39.5591 43.8873 39.5552 43.8984 C 39.478 44.1174 39.3971 44.3312 39.3113 44.5363 C 37.3085 49.3187 38.0684 55.3719 37.999 58.3187 C 37.9397 60.8575 38.3517 60.8909 38.7837 62.2784 C 38.8424 62.4673 38.899 62.6505 38.9531 62.8297 C 38.9537 62.8309 38.9541 62.8322 38.9542 62.8336 C 39.0076 63.0092 39.0586 63.1804 39.1078 63.349 C 39.1099 63.3559 39.1117 63.3622 39.1138 63.369 C 39.1616 63.5327 39.2072 63.6935 39.2515 63.8528 C 39.254 63.8624 39.2566 63.8716 39.2593 63.8812 C 39.3025 64.0382 39.344 64.1938 39.384 64.3491 L 39.3917 64.379 C 39.4312 64.5333 39.469 64.6874 39.5056 64.842 C 39.5084 64.8533 39.511 64.8645 39.5137 64.8756 C 39.5497 65.0297 39.5844 65.185 39.618 65.342 C 39.6202 65.3536 39.6228 65.3652 39.6255 65.377 C 39.6587 65.5356 39.6909 65.6966 39.7222 65.8602 C 39.7236 65.87 39.7257 65.8796 39.7275 65.8893 C 39.7587 66.0552 39.7886 66.2246 39.8174 66.3984 C 39.8185 66.4046 39.8195 66.4107 39.8207 66.4169 L 25.8492 66.4169 L 25.6288 66.4169 L 11.6575 66.4169 C 11.6586 66.4107 11.6597 66.4046 11.6606 66.3984 C 11.6895 66.2246 11.7194 66.0552 11.7505 65.8893 C 11.7524 65.8796 11.7544 65.87 11.7559 65.8602 C 11.7871 65.6966 11.8193 65.5356 11.8525 65.377 C 11.8552 65.3652 11.8578 65.3536 11.86 65.342 C 11.8937 65.185 11.9282 65.0297 11.9644 64.8756 C 11.967 64.8645 11.9696 64.8533 11.9724 64.842 C 12.009 64.6874 12.0469 64.5333 12.0863 64.379 L 12.094 64.3491 C 12.1342 64.1938 12.1755 64.0382 12.2189 63.8812 C 12.2216 63.8716 12.2241 63.8624 12.2266 63.8528 C 12.2709 63.6935 12.3165 63.5327 12.3643 63.369 C 12.3663 63.3622 12.3682 63.3559 12.3702 63.349 C 12.4192 63.1804 12.4705 63.0092 12.5238 62.8336 C 12.5239 62.8322 12.5243 62.8309 12.525 62.8297 C 12.5791 62.6505 12.6356 62.4673 12.6943 62.2784 C 13.1263 60.8909 13.5383 60.8575 13.479 58.3187 C 13.4097 55.3719 14.1696 49.3187 12.1667 44.5363 C 12.0809 44.3312 12.0001 44.1174 11.9229 43.8984 C 11.9189 43.8873 11.9148 43.8762 11.9109 43.8651 C 11.8357 43.6506 11.765 43.4309 11.6975 43.208 C 11.6932 43.1934 11.6887 43.1784 11.6842 43.1636 C 11.6173 42.9397 11.5537 42.713 11.4937 42.4857 C 11.4915 42.4772 11.4895 42.4689 11.4873 42.4604 C 11.4263 42.2276 11.3687 41.9943 11.3147 41.763 C 11.3145 41.7626 11.3145 41.7625 11.3145 41.7621 L 11.3145 41.7618 C 12.3876 41.1742 13.2954 38.6371 13.4357 34.5052 Z" fill="#689f38"/>
			<path d="M 24.6144 80.119 C 24.6144 80.1261 24.6144 80.1332 24.6144 80.1409 C 24.614 80.1409 22.3043 81.4224 16.6771 81.0917 C 12.7533 80.8613 10.5874 79.6985 10.5874 79.6985 C 10.5892 79.6373 10.5918 79.5764 10.5941 79.5158 C 10.6908 77.17 10.8873 74.6736 11.1509 71.7128 C 11.1462 71.6886 11.1447 71.661 11.1467 71.6301 C 11.1615 71.3832 11.1766 71.1469 11.1918 70.9166 C 11.1931 70.8951 11.1948 70.873 11.196 70.8511 C 11.2118 70.6128 11.228 70.3828 11.2445 70.1609 C 11.2451 70.1542 11.2455 70.1475 11.2462 70.1406 C 11.2629 69.915 11.28 69.697 11.2976 69.487 C 11.2976 69.4867 11.2976 69.4863 11.2976 69.4863 C 11.3076 69.3666 11.3179 69.2545 11.328 69.1398 C 11.3362 69.051 11.3435 68.9581 11.3516 68.872 C 11.3699 68.6763 11.3887 68.4872 11.4082 68.3039 C 11.4082 68.3029 11.4084 68.3017 11.4084 68.3005 C 11.4286 68.1118 11.449 67.9289 11.4697 67.752 C 11.4697 67.7515 11.4702 67.7509 11.4702 67.7504 C 11.4725 67.7321 11.4747 67.7153 11.4771 67.6973 C 11.4937 67.5563 11.5112 67.4182 11.5294 67.2839 C 11.5371 67.2242 11.5457 67.1669 11.5537 67.1082 C 11.5668 67.0146 11.5798 66.9214 11.5934 66.8307 C 11.6301 66.5831 11.6687 66.3444 11.7095 66.1143 C 11.7097 66.1124 11.7101 66.1109 11.7104 66.1093 C 11.7478 65.8988 11.7871 65.6942 11.8284 65.4937 L 11.8284 65.4932 C 11.8698 65.2925 11.9131 65.0955 11.9587 64.9003 C 11.9594 64.8975 11.96 64.8948 11.9604 64.8921 C 12.0059 64.698 12.0537 64.5052 12.1038 64.3121 C 12.1038 64.3114 12.1041 64.3107 12.1041 64.3101 C 12.4873 64.4946 16.5728 65.5605 25.6563 65.5625 L 25.6563 65.5608 C 25.6833 65.5612 25.7112 65.5615 25.7391 65.562 C 25.7668 65.5615 25.7947 65.5612 25.8218 65.5608 L 25.8218 65.5625 C 34.9056 65.5605 38.9907 64.4946 39.3739 64.3101 C 39.3743 64.3112 39.3745 64.3124 39.3745 64.3136 C 39.4248 64.5063 39.4722 64.6985 39.5176 64.8921 C 39.5181 64.8948 39.5187 64.8975 39.5194 64.9003 C 39.5649 65.0955 39.6083 65.2925 39.6494 65.493 C 39.6497 65.4932 39.6497 65.4933 39.6497 65.4933 C 39.6909 65.6942 39.7302 65.8988 39.7676 66.1093 C 39.7679 66.1109 39.7683 66.1124 39.7683 66.1143 C 39.8083 66.3387 39.8459 66.5709 39.8821 66.8114 C 39.9028 66.9489 39.9229 67.0886 39.9423 67.2328 C 39.9443 67.2485 39.946 67.2648 39.9485 67.2806 C 39.9678 67.4254 39.9866 67.5738 40.0049 67.7266 C 40.0066 67.74 40.0083 67.7529 40.0098 67.7664 C 40.0286 67.9244 40.0466 68.0874 40.0645 68.2546 C 40.0674 68.2803 40.0698 68.3063 40.0729 68.332 C 40.0903 68.5012 40.1078 68.675 40.1246 68.8549 C 40.1261 68.8705 40.1278 68.8867 40.1292 68.9025 C 40.1465 69.091 40.1637 69.2845 40.1805 69.4857 C 40.1809 69.4867 40.1809 69.4877 40.1809 69.4883 C 40.197 69.686 40.2131 69.8913 40.229 70.1025 C 40.2312 70.132 40.2332 70.1613 40.2357 70.191 C 40.2505 70.3978 40.2659 70.611 40.2804 70.8311 C 40.2826 70.8608 40.2845 70.8912 40.2866 70.9208 C 40.3018 71.15 40.3167 71.3846 40.3314 71.6301 C 40.3335 71.6613 40.3314 71.6888 40.3269 71.7133 C 40.5907 74.6756 40.7872 77.1724 40.8843 79.5192 C 40.8861 79.5784 40.8888 79.6379 40.8906 79.6985 C 40.8906 79.6985 38.7249 80.8613 34.8009 81.0917 C 29.1733 81.4224 26.8636 80.1409 26.8636 80.1409 C 26.8569 79.4344 26.8552 78.7466 26.8591 78.0865 L 26.8588 78.0865 L 26.8588 78.0865 C 26.7567 78.1286 26.6523 78.1619 26.5479 78.1942 C 26.3909 78.2413 26.2324 78.281 26.0701 78.3008 L 26.0701 78.3015 C 26.0669 78.3022 26.064 78.3015 26.0608 78.3022 C 25.9546 78.3143 25.8475 78.3221 25.7391 78.3217 C 25.6304 78.3221 25.5234 78.3143 25.4172 78.3022 C 25.4141 78.3015 25.4113 78.3022 25.408 78.3015 L 25.408 78.3008 C 25.1377 78.2679 24.8752 78.1925 24.6189 78.0865 C 24.6228 78.7396 24.6211 79.4202 24.6144 80.119 Z" fill="#6b6a67"/>
		</g>
	</g>
</svg>