<?xml version="1.0" standalone="no"?>
<!-- Generator: Adobe Fireworks 10, Export SVG Extension by Aaron Beall (http://fireworks.abeall.com) . Version: 0.6.1  -->
<!DOCTYPE svg PUBLIC "-//W3C//DTD SVG 1.1//EN" "http://www.w3.org/Graphics/SVG/1.1/DTD/svg11.dtd">
<svg id="Untitled-Str%E1nka%201" viewBox="0 0 57 150" style="background-color:#ffffff00" version="1.1"
	xmlns="http://www.w3.org/2000/svg" xmlns:xlink="http://www.w3.org/1999/xlink" xml:space="preserve"
	x="0px" y="0px" width="57px" height="150px"
>
	<g id="Vrstva%201">
		<g id="3">
			<path d="M 44.4359 57.9464 C 43.9698 54.811 42.8257 49.5994 43.9395 44.5363 C 44.7118 41.026 43.5929 38.4315 43.5929 37.9224 C 43.5929 29.011 45.6958 25.7351 45.6958 25.7351 C 44.5872 25.5146 43.5134 24.9088 40.4637 23.9232 C 38.1143 23.1639 35.6151 22.8223 34.6204 21.35 C 33.6178 19.8656 33.6002 19.4675 33.5092 17.2836 C 33.4329 15.4438 29.7727 14.9084 28.712 14.8065 L 28.712 14.7823 L 28.5098 14.7814 L 28.5098 14.7811 L 28.4948 14.7811 L 28.4454 14.7813 L 28.396 14.7811 L 28.3811 14.7811 L 28.3811 14.7814 L 28.1787 14.7823 L 28.1787 14.8065 C 27.1179 14.9084 23.458 15.4438 23.3817 17.2836 C 23.2905 19.4675 23.2732 19.8656 22.2703 21.35 C 21.2756 22.8223 18.7764 23.1639 16.4271 23.9232 C 13.3774 24.9088 12.3036 25.5146 11.1951 25.7351 C 11.1951 25.7351 13.298 29.011 13.298 37.9224 C 13.298 38.4315 12.1792 41.026 12.9514 44.5363 C 14.0649 49.5994 12.9209 54.811 12.4548 57.9464 C 12.1047 60.3007 11.0378 66.1587 11.0393 71.8023 C 11.0396 72.8332 17.3456 69.834 20.6016 71.2122 C 22.9263 72.1956 25.0514 77.9193 28.1787 78.3008 L 28.1787 78.3015 C 28.1819 78.3022 28.1848 78.3015 28.188 78.3022 C 28.2517 78.3099 28.3168 78.3106 28.3811 78.3137 L 28.3811 78.3217 C 28.4027 78.3217 28.4237 78.3184 28.4454 78.3177 C 28.467 78.3184 28.488 78.3217 28.5098 78.3217 L 28.5098 78.3137 C 28.5741 78.3106 28.6389 78.3099 28.7028 78.3022 C 28.7059 78.3015 28.7087 78.3022 28.712 78.3015 L 28.712 78.3008 C 31.8394 77.9193 33.9646 72.1956 36.2892 71.2122 C 39.545 69.834 45.8511 72.8332 45.8514 71.8023 C 45.8528 66.1587 44.7861 60.3007 44.4359 57.9464 Z" fill="#fdd3ae"/>
			<g>
				<path d="M 45.9155 71.8023 C 45.712 69.4739 44.1318 63.9564 36.306 65.0942 C 31.2592 65.8279 28.7938 75.3094 28.7764 78.3008 C 28.744 83.7926 29.8574 90.856 30.7781 96.5649 C 30.9819 97.8313 30.7538 99.0903 30.7046 100.2692 C 30.538 104.2919 31.4744 105.9835 31.3176 108.3494 C 31.1265 111.2268 30.088 113.7535 30.3169 119.2047 C 30.6112 126.2184 33.2411 134.306 32.9696 139.0042 C 32.9067 140.1044 32.761 141.2853 32.5557 143.5106 C 32.3552 145.6719 31.5129 147.7122 31.5349 148.484 C 31.5946 150.7006 34.0811 149.8527 35.064 149.7847 C 36.2585 149.7006 41.3357 149.1697 40.9946 147.4558 C 40.772 146.3375 39.601 145.2588 39.3538 143.3545 C 39.2163 142.2967 38.1554 140.029 38.1614 139.4537 C 38.2659 129.0842 41.1555 123.8922 41.2451 117.7297 C 41.3051 113.6506 40.713 110.8473 40.4358 108.2505 C 40.1566 105.6525 42.208 99.6024 43.0457 96.3449 C 44.9967 88.7566 46.4863 78.3217 45.9155 71.8023 Z" fill="#fdd3ae"/>
				<g id="left%20hand">
					<path d="M 52.2684 59.6353 C 51.7059 59.7116 50.7252 59.196 48.7701 55.829 C 46.6891 52.2456 43.1167 42.3716 42.1697 36.6985 C 41.8817 34.9744 40.7305 32.3831 40.585 31.8264 C 39.5834 27.999 40.9255 24.8652 40.934 24.0562 C 43.9735 24.4012 49.8169 26.331 51.0742 34.0286 C 51.4618 36.4035 51.5359 37.7392 52.7747 40.8657 C 54.1232 44.2667 54.5586 50.8061 54.7822 54.5757 C 54.8391 55.5353 55.0746 59.2551 52.2684 59.6353 Z" fill="#fdd3ae"/>
					<path d="M 54.8257 74.0508 C 54.8728 72.7558 53.7692 72.6432 53.0114 72.4308 C 51.8943 72.1176 51.4874 72.3616 50.6969 73.5364 C 50.1625 74.8943 48.8823 74.6127 47.943 78.6296 C 47.691 79.7083 47.4136 80.7505 47.2589 81.7053 C 47.2421 81.7974 48.1198 82.1191 48.5283 81.1072 C 49.5171 78.6659 49.8431 79.0508 50.4221 78.2194 C 50.29 79.322 50.6531 80.4084 49.3145 82.9454 C 48.468 84.5482 47.3853 85.4089 48.0757 86.1302 C 48.7661 86.8509 52.2495 84.8968 54.167 80.3239 C 54.9601 78.4327 55.478 76.1567 54.8257 74.0508 Z" fill="#fdd3ae"/>
					<path d="M 50.6396 73.8065 C 50.6396 73.8065 50.6396 73.8058 50.6396 73.8052 C 50.8809 75.3411 51.7002 75.3852 52.3722 75.4225 C 53.0444 75.4585 54.8934 76.5745 55.0601 75.4269 C 55.1642 74.7076 55.0742 73.8557 55.1831 72.9708 C 56.4518 62.6658 56.5483 57.2907 53.6644 53.0728 C 53.0364 52.1539 51.5541 50.5861 50.1265 51.0822 C 48.0238 51.8118 47.8685 56.9776 47.8655 58.1118 C 47.85 64.4584 50.0641 68.2006 50.6151 72.3184 C 50.7036 72.9813 50.6812 73.4456 50.6396 73.8065 Z" fill="#fdd3ae"/>
				</g>
			</g>
			<g>
				<path d="M 10.9752 71.8023 C 11.1788 69.4739 12.759 63.9564 20.5847 65.0942 C 25.6317 65.8279 28.0969 75.3094 28.1144 78.3008 C 28.1467 83.7926 27.0332 90.856 26.1127 96.5649 C 25.9087 97.8313 26.1368 99.0903 26.186 100.2692 C 26.3528 104.2919 25.4163 105.9835 25.5731 108.3494 C 25.7642 111.2268 26.8029 113.7535 26.574 119.2047 C 26.2795 126.2184 23.6497 134.306 23.9211 139.0042 C 23.9839 140.1044 24.1298 141.2853 24.335 143.5106 C 24.5354 145.6719 25.3779 147.7122 25.3558 148.484 C 25.2961 150.7006 22.8098 149.8527 21.8268 149.7847 C 20.6323 149.7006 15.5549 149.1697 15.896 147.4558 C 16.1188 146.3375 17.2897 145.2588 17.537 143.3545 C 17.6746 142.2967 18.7354 140.029 18.7295 139.4537 C 18.6248 129.0842 15.735 123.8922 15.6454 117.7297 C 15.5857 113.6506 16.1779 110.8473 16.4548 108.2505 C 16.7339 105.6525 14.6829 99.6024 13.8452 96.3449 C 11.8938 88.7566 10.4042 78.3217 10.9752 71.8023 Z" fill="#fdd3ae"/>
				<g id="left%20hand2">
					<path d="M 4.6223 59.6353 C 5.1848 59.7116 6.1656 59.196 8.1207 55.829 C 10.2017 52.2456 13.7739 42.3716 14.7212 36.6985 C 15.009 34.9744 16.1604 32.3831 16.3059 31.8264 C 17.3075 27.999 15.9652 24.8652 15.9568 24.0562 C 12.917 24.4012 7.074 26.331 5.8168 34.0286 C 5.4287 36.4035 5.3549 37.7392 4.1161 40.8657 C 2.7678 44.2667 2.3323 50.8061 2.1084 54.5757 C 2.0518 55.5353 1.8163 59.2551 4.6223 59.6353 Z" fill="#fdd3ae"/>
					<path d="M 2.0652 74.0508 C 2.0181 72.7558 3.1217 72.6432 3.8794 72.4308 C 4.9966 72.1176 5.4033 72.3616 6.1936 73.5364 C 6.7285 74.8943 8.0085 74.6127 8.9475 78.6296 C 9.1998 79.7083 9.4772 80.7505 9.6316 81.7053 C 9.6484 81.7974 8.7708 82.1191 8.3625 81.1072 C 7.3735 78.6659 7.0474 79.0508 6.4688 78.2194 C 6.6006 79.322 6.2378 80.4084 7.5763 82.9454 C 8.4226 84.5482 9.5056 85.4089 8.8151 86.1302 C 8.1246 86.8509 4.641 84.8968 2.7238 80.3239 C 1.9308 78.4327 1.4128 76.1567 2.0652 74.0508 Z" fill="#fdd3ae"/>
					<path d="M 6.2509 73.8065 C 6.2509 73.8065 6.2509 73.8058 6.2509 73.8052 C 6.0098 75.3411 5.1907 75.3852 4.5186 75.4225 C 3.8464 75.4585 1.9973 76.5745 1.8304 75.4269 C 1.7263 74.7076 1.8167 73.8557 1.7076 72.9708 C 0.4392 62.6658 0.3422 57.2907 3.2264 53.0728 C 3.8545 52.1539 5.3367 50.5861 6.7643 51.0822 C 8.8667 51.8118 9.0223 56.9776 9.0251 58.1118 C 9.0408 64.4584 6.8267 68.2006 6.2758 72.3184 C 6.1873 72.9813 6.2096 73.4456 6.2509 73.8065 Z" fill="#fdd3ae"/>
				</g>
			</g>
			<path d="M 44.4359 57.9464 C 43.9698 54.811 42.8257 49.5994 43.9395 44.5363 C 44.7118 41.026 43.9034 38.9568 43.5929 37.9224 C 43.5488 37.7748 43.5054 37.6335 43.4615 37.4892 C 42.082 32.9298 41.001 29.8129 41.3967 24.0562 C 41.3967 24.0562 38.0591 23.1912 37.7267 23.0969 C 37.725 23.0963 37.7209 23.0953 37.7196 23.0948 L 37.7196 23.0948 L 37.7192 23.0948 C 37.7175 23.1066 37.7148 23.1189 37.7129 23.1308 C 37.0996 26.8549 33.7046 32.1997 30.0178 33.3793 C 29.5122 33.5212 28.9875 33.6027 28.4453 33.614 C 27.9031 33.6027 27.3783 33.5212 26.8728 33.3793 C 23.1859 32.1997 19.791 26.8549 19.1777 23.1308 C 19.1758 23.1189 19.1731 23.1066 19.1713 23.0948 L 19.1711 23.0948 L 19.1711 23.0948 C 19.1697 23.0953 19.1655 23.0963 19.1639 23.0969 C 18.8317 23.1912 15.4937 24.0562 15.4937 24.0562 C 15.8896 29.8129 14.8085 32.9298 13.429 37.4892 C 13.3853 37.6335 13.3419 37.7748 13.2976 37.9224 C 12.9871 38.9568 12.1787 41.026 12.951 44.5363 C 14.0648 49.5994 12.9208 54.811 12.4546 57.9464 C 12.2014 59.6484 11.5742 63.1811 11.2466 67.1404 C 16.3468 69.9865 27.0933 70.1594 28.3807 70.1699 L 28.3807 70.1705 L 28.3811 70.1705 L 28.3811 70.1705 C 28.3811 70.1705 28.4072 70.1703 28.4453 70.1702 C 28.4834 70.1703 28.5094 70.1705 28.5094 70.1705 L 28.5094 70.1705 L 28.5098 70.1705 L 28.5098 70.1699 C 29.7974 70.1594 40.5439 69.9865 45.644 67.1404 C 45.3163 63.1811 44.6892 59.6484 44.4359 57.9464 Z" fill="#689f38"/>
			<path d="M 45.9155 71.8023 C 45.9014 71.6363 45.8788 71.4521 45.8484 71.2571 C 45.8248 69.252 45.6743 67.236 45.4766 65.373 C 42.8331 66.0444 36.8547 68.1042 28.4454 68.1146 C 20.0361 68.1042 14.0576 66.0444 11.4143 65.373 C 11.2163 67.236 11.0657 69.252 11.0425 71.2571 C 11.0122 71.4521 10.9894 71.6363 10.9752 71.8023 C 10.7661 74.1895 10.8342 77.1035 11.0994 80.2089 C 12.3805 80.5517 14.4158 80.9645 17.1262 81.0917 C 22.8661 81.3616 26.8209 80.5904 28.0796 80.298 C 28.105 79.6147 28.1183 78.9462 28.1144 78.3008 C 28.1144 78.2975 28.114 78.2931 28.114 78.2897 C 28.1357 78.2931 28.157 78.2982 28.1787 78.3008 L 28.1787 78.3015 C 28.1819 78.3022 28.1848 78.3015 28.188 78.3022 C 28.2517 78.3099 28.3168 78.3106 28.3811 78.3137 L 28.3811 78.3217 C 28.4027 78.3217 28.4237 78.3184 28.4454 78.3177 C 28.467 78.3184 28.488 78.3217 28.5098 78.3217 L 28.5098 78.3137 C 28.5741 78.3106 28.6389 78.3099 28.7028 78.3022 C 28.7059 78.3015 28.7087 78.3022 28.712 78.3015 L 28.712 78.3008 C 28.7338 78.2982 28.7551 78.2931 28.7766 78.2897 C 28.7766 78.2931 28.7764 78.2975 28.7764 78.3008 C 28.7725 78.9462 28.7858 79.6147 28.8114 80.298 C 30.0698 80.5904 34.0248 81.3616 39.7646 81.0917 C 42.4751 80.9645 44.5104 80.5517 45.7915 80.2089 C 46.0566 77.1035 46.1246 74.1895 45.9155 71.8023 Z" fill="#6b6a67"/>
			<path d="M 33.6062 18.9018 C 33.5591 18.4792 33.538 17.9695 33.5092 17.2836 C 33.499 17.0426 33.4263 16.8246 33.3074 16.6262 C 32.9475 16.6003 28.4813 18.1757 28.4547 18.179 C 28.4519 18.1786 28.4486 18.1779 28.4454 18.1776 L 28.4454 18.1776 C 28.4421 18.1779 28.4388 18.1786 28.436 18.179 C 28.4095 18.1757 23.9431 16.6003 23.5833 16.6262 C 23.4644 16.8246 23.3914 17.0426 23.3817 17.2836 C 23.3529 17.9695 23.3315 18.4791 23.2847 18.9016 C 24.3024 20.4894 26.6797 22.3422 28.4375 22.3422 C 28.4382 22.3422 28.4525 22.3422 28.4531 22.3422 C 30.2107 22.3422 32.5884 20.4895 33.6062 18.9018 Z" fill="#eac5a2"/>
			<path d="M 36.8096 6.0745 C 36.7089 5.5212 36.8678 5.0298 36.6782 4.4911 C 36.5347 4.0835 36.0969 3.7624 35.8699 3.4135 C 35.5864 2.9772 35.4949 2.6224 35.1765 2.2021 C 34.8245 1.7393 34.3696 1.6626 33.8918 1.3926 C 33.2273 1.0164 32.9534 0.6271 32.2125 0.4672 C 30.9419 0.1924 29.783 -0.0294 28.4454 0.0032 C 27.1077 -0.0294 25.9487 0.1924 24.6782 0.4672 C 23.9373 0.6271 23.6635 1.0164 22.999 1.3926 C 22.521 1.6626 22.0662 1.7393 21.7142 2.2021 C 21.3959 2.6224 21.3044 2.9772 21.0208 3.4135 C 20.7938 3.7624 20.3558 4.0835 20.2124 4.4911 C 20.0229 5.0298 20.1819 5.5212 20.0813 6.0745 C 19.9861 6.595 19.728 7.1119 19.7817 7.6539 C 19.8351 8.1889 20.1418 8.6478 20.0507 9.2288 C 19.9607 9.8045 20.1132 10.4101 20.3979 10.9548 C 20.781 11.687 20.469 12.0177 20.7329 12.7903 C 21.0413 13.6964 21.4736 14.5807 22.101 15.3422 C 22.8049 16.1971 23.7716 16.8991 24.9178 17.1721 L 28.4454 17.3326 L 31.9729 17.1721 C 33.1193 16.8991 34.0857 16.1971 34.7898 15.3422 C 35.4171 14.5807 35.8495 13.6964 36.158 12.7903 C 36.4216 12.0177 36.1099 11.687 36.4929 10.9548 C 36.7778 10.4101 36.9302 9.8045 36.8398 9.2288 C 36.7489 8.6478 37.0558 8.1889 37.109 7.6539 C 37.1625 7.1119 36.9045 6.595 36.8096 6.0745 Z" fill="#7f6450"/>
			<g>
				<path d="M 34.9595 10.9792 C 34.9595 10.9792 35.4846 10.0747 35.6714 10.8181 C 36.0157 12.1917 34.7911 13.7153 34.7374 13.9886 C 34.6849 14.262 34.9595 10.9792 34.9595 10.9792 Z" fill="#fdd3ae"/>
				<path d="M 21.9315 10.9792 C 21.9315 10.9792 21.4065 10.0747 21.2197 10.8181 C 20.875 12.1917 22.0996 13.7153 22.1533 13.9886 C 22.2063 14.262 21.9315 10.9792 21.9315 10.9792 Z" fill="#fdd3ae"/>
				<path d="M 34.8459 10.3315 C 34.6094 9.0579 34.7627 7.7641 34.5261 6.9401 C 34.2798 6.0836 34.1007 5.7382 33.6917 5.537 C 32.9071 5.1512 31.4188 5.7094 28.4454 5.6448 C 25.4719 5.7094 23.9836 5.1512 23.199 5.537 C 22.7902 5.7382 22.611 6.0836 22.3646 6.9401 C 22.1281 7.7641 22.2813 9.0579 22.045 10.3315 C 21.5442 13.0309 22.077 14.6277 22.6729 16.6523 C 23.1127 18.1497 25.0032 20.7728 28.4454 21.2396 C 31.8875 20.7728 33.7781 18.1497 34.2179 16.6523 C 34.8137 14.6277 35.3466 13.0309 34.8459 10.3315 Z" fill="#fdd3ae"/>
			</g>
		</g>
	</g>
</svg>