<?xml version="1.0" standalone="no"?>
<!-- Generator: Adobe Fireworks 10, Export SVG Extension by Aaron Beall (http://fireworks.abeall.com) . Version: 0.6.1  -->
<!DOCTYPE svg PUBLIC "-//W3C//DTD SVG 1.1//EN" "http://www.w3.org/Graphics/SVG/1.1/DTD/svg11.dtd">
<svg id="Untitled-Str%E1nka%201" viewBox="0 0 63 150" style="background-color:#ffffff00" version="1.1"
	xmlns="http://www.w3.org/2000/svg" xmlns:xlink="http://www.w3.org/1999/xlink" xml:space="preserve"
	x="0px" y="0px" width="63px" height="150px"
>
	<g id="Vrstva%201">
		<g id="4">
			<g>
				<path d="M 51.4272 64.0963 C 50.8517 60.8682 45.2697 58.8772 41.4386 59.6556 C 32.7557 61.4193 31.4314 75.331 31.4314 78.3217 C 31.4314 88.2054 33.0723 98.6092 32.921 99.7794 C 32.2593 104.9048 33.2231 106.0118 33.0662 108.377 C 32.8752 111.2551 31.8365 113.7811 32.0657 119.233 C 32.36 126.2466 34.793 134.2124 34.5215 138.9106 C 34.4585 140.0115 34.3127 141.1918 34.1075 143.4171 C 33.9072 145.5791 33.0649 147.6187 33.0868 148.3911 C 33.1464 150.607 37.067 149.8533 38.05 149.7847 C 39.2448 149.7006 43.6597 149.1697 43.3188 147.4565 C 43.0959 146.3375 41.9253 145.2588 41.678 143.3552 C 41.5403 142.2974 40.3861 140.0209 40.4855 139.4537 C 41.3402 134.5818 45.1575 123.9305 44.5071 117.8024 C 43.9221 112.2913 43.4341 109.5304 43.7584 106.939 C 44.0774 104.3928 43.7584 102.9763 45.7045 97.7291 C 48.5413 90.0809 52.6963 75.0642 51.4272 64.0963 Z" fill="#fdd3ae"/>
				<g id="left%20hand">
					<path d="M 57.7058 58.984 C 57.1379 58.9786 56.1282 58.6901 53.8677 55.5198 C 51.4619 52.1453 47.7302 42.1942 46.2588 36.6338 C 45.8112 34.9438 43.7372 32.8978 43.4806 32.3829 C 40.2588 25.925 44.24 23.9407 46.1479 24.3784 C 54.1051 26.2035 61.7833 38.6017 62.146 55.1076 C 62.1672 56.0685 63.022 59.0349 57.7058 58.984 Z" fill="#fdd3ae"/>
					<path d="M 61.7328 73.7268 C 61.8708 72.524 60.8315 72.3477 60.1277 72.1002 C 59.0903 71.7364 57.3346 71.9724 56.4998 73.0156 C 55.8934 74.2456 54.6989 73.9001 53.516 77.5795 C 53.1985 78.5684 52.86 79.5205 52.644 80.3993 C 52.6211 80.4841 54.2853 80.4518 54.7456 79.535 C 55.8618 77.3255 56.1437 77.705 56.7533 76.9682 C 56.5482 77.9863 57.3107 79.3762 55.8557 81.6528 C 54.9366 83.0908 53.8457 83.8215 54.449 84.5381 C 55.0525 85.2548 58.501 83.6607 60.6521 79.5266 C 61.5415 77.8167 62.1986 75.7303 61.7328 73.7268 Z" fill="#fdd3ae"/>
					<path d="M 56.3137 73.4896 C 56.5522 75.0251 58.5552 74.7146 59.2271 74.7533 C 59.8989 74.791 61.5139 74.533 61.6833 73.386 C 61.7883 72.6673 61.6995 71.8145 61.8099 70.9302 C 63.0962 60.6274 63.4346 56.629 60.5581 52.4058 C 59.9316 51.4861 58.4521 49.9156 57.0234 50.4094 C 55.0134 51.1027 54.2705 49.8509 53.4449 57.2856 C 52.7905 63.1708 56.3141 73.4903 56.3137 73.4896 Z" fill="#fdd3ae"/>
				</g>
			</g>
			<g>
				<path d="M 11.4359 64.0963 C 12.0115 60.8682 17.5933 58.8772 21.4243 59.6556 C 30.1074 61.4193 31.4314 75.331 31.4314 78.3217 C 31.4314 88.2054 29.7905 98.6092 29.9418 99.7794 C 30.6039 104.9048 29.64 106.0118 29.7966 108.377 C 29.9879 111.2551 31.0266 113.7811 30.7976 119.233 C 30.5032 126.2466 28.0702 134.2124 28.3417 138.9106 C 28.4043 140.0115 28.5502 141.1918 28.7556 143.4171 C 28.9561 145.5791 29.7983 147.6187 29.7764 148.3911 C 29.7164 150.607 25.7959 149.8533 24.8127 149.7847 C 23.6184 149.7006 19.2031 149.1697 19.5442 147.4565 C 19.7668 146.3375 20.938 145.2588 21.1851 143.3552 C 21.3229 142.2974 22.4771 140.0209 22.3777 139.4537 C 21.5229 134.5818 17.7053 123.9305 18.3557 117.8024 C 18.941 112.2913 19.4291 109.5304 19.1047 106.939 C 18.7858 104.3928 19.1047 102.9763 17.1584 97.7291 C 14.3219 90.0809 10.1669 75.0642 11.4359 64.0963 Z" fill="#fdd3ae"/>
				<g id="left%20hand2">
					<path d="M 5.1575 58.984 C 5.7249 58.9786 6.735 58.6901 8.9951 55.5198 C 11.4009 52.1453 15.1329 42.1942 16.6044 36.6338 C 17.0516 34.9438 19.126 32.8978 19.3826 32.3829 C 22.6044 25.925 18.6228 23.9407 16.7148 24.3784 C 8.7581 26.2035 1.0796 38.6017 0.7172 55.1076 C 0.6956 56.0685 -0.1592 59.0349 5.1575 58.984 Z" fill="#fdd3ae"/>
					<path d="M 1.1304 73.7268 C 0.9919 72.524 2.0313 72.3477 2.7356 72.1002 C 3.7728 71.7364 5.5286 71.9724 6.3635 73.0156 C 6.9697 74.2456 8.1639 73.9001 9.3472 77.5795 C 9.6648 78.5684 10.0032 79.5205 10.2191 80.3993 C 10.2417 80.4841 8.5779 80.4518 8.1172 79.535 C 7.0013 77.3255 6.7195 77.705 6.1099 76.9682 C 6.3149 77.9863 5.5525 79.3762 7.0071 81.6528 C 7.9265 83.0908 9.0171 83.8215 8.4138 84.5381 C 7.8103 85.2548 4.3623 83.6607 2.2112 79.5266 C 1.3213 77.8167 0.6646 75.7303 1.1304 73.7268 Z" fill="#fdd3ae"/>
					<path d="M 6.5493 73.4896 C 6.3109 75.0251 4.3076 74.7146 3.6361 74.7533 C 2.9639 74.791 1.3492 74.533 1.1799 73.386 C 1.0748 72.6673 1.1637 71.8145 1.0532 70.9302 C -0.2333 60.6274 -0.5714 56.629 2.3048 52.4058 C 2.9312 51.4861 4.4111 49.9156 5.8394 50.4094 C 7.8497 51.1027 8.5924 49.8509 9.4182 57.2856 C 10.0723 63.1708 6.5491 73.4903 6.5493 73.4896 Z" fill="#fdd3ae"/>
				</g>
			</g>
			<path d="M 47.5369 45.4775 C 48.9761 41.6526 48.2034 38.3812 46.8424 33.8677 C 45.9867 31.0302 46.1305 27.9064 47.0765 24.6777 C 44.3966 23.6655 39.4714 22.8093 38.4381 22.1773 C 36.2762 20.8546 36.3816 18.512 36.7278 16.2432 C 37.0061 14.4225 32.823 14.9091 31.7625 14.8072 L 31.7625 14.783 L 31.4463 14.7818 L 31.4314 14.7818 L 31.4166 14.7818 L 31.1003 14.783 L 31.1003 14.8072 C 30.0398 14.9091 25.8572 14.4225 26.135 16.2432 C 26.4812 18.512 26.5869 20.8546 24.425 22.1773 C 23.3918 22.8093 18.4666 23.6655 15.7866 24.6777 C 16.7324 27.9064 16.8762 31.0302 16.0208 33.8677 C 14.6597 38.3812 13.8871 41.6526 15.3263 45.4775 C 16.0955 47.521 9.8044 57.4618 11.4757 70.5753 C 11.606 71.5974 20.2673 69.8347 23.5234 71.2127 C 25.848 72.1965 27.9731 77.9197 31.1003 78.3012 L 31.1003 78.3019 C 31.1038 78.3026 31.1067 78.3019 31.1097 78.3026 C 31.2158 78.3146 31.323 78.3224 31.4314 78.3217 C 31.5402 78.3224 31.6473 78.3146 31.7531 78.3026 C 31.7563 78.3019 31.7595 78.3026 31.7625 78.3019 L 31.7625 78.3012 C 34.8899 77.9197 37.0151 72.1965 39.3397 71.2127 C 42.5958 69.8347 51.2571 71.5974 51.3875 70.5753 C 53.0586 57.4618 46.7673 47.521 47.5369 45.4775 Z" fill="#fdd3ae"/>
			<g>
				<path d="M 40.4106 6.0701 C 40.303 5.5205 40.4734 5.0327 40.2705 4.4975 C 40.1177 4.0924 39.6499 3.7738 39.4073 3.4271 C 39.1046 2.9939 39.007 2.6415 38.6667 2.2239 C 38.2905 1.7642 37.8052 1.688 37.295 1.4198 C 36.5847 1.0464 36.2927 0.6598 35.5012 0.501 C 34.1443 0.228 32.9066 0.0078 31.4783 0.04 L 31.4314 0.04 L 31.385 0.04 C 29.9565 0.0078 28.7185 0.228 27.3619 0.501 C 26.5704 0.6598 26.2781 1.0464 25.5681 1.4198 C 25.0579 1.688 24.5723 1.7642 24.1964 2.2239 C 23.856 2.6415 23.7583 2.9939 23.4558 3.4271 C 23.2133 3.7738 22.7451 4.0924 22.5923 4.4975 C 22.3895 5.0327 22.5599 5.5205 22.4525 6.0701 C 22.3508 6.5869 22.0752 7.1003 22.1322 7.6386 C 22.1891 8.1699 22.5168 8.6259 22.4194 9.2029 C 22.3239 9.7747 22.4861 10.3763 22.7906 10.9172 C 23.1995 11.6442 22.8661 11.973 23.1479 12.7404 C 23.4777 13.6401 23.9395 14.5187 24.6094 15.2747 C 25.3611 16.1237 26.3937 16.821 27.6176 17.0922 L 31.385 17.2517 L 31.4314 17.2517 L 31.4783 17.2517 L 35.2456 17.0922 C 36.4695 16.821 37.5018 16.1237 38.2539 15.2747 C 38.9237 14.5187 39.3851 13.6401 39.7148 12.7404 C 39.9968 11.973 39.6637 11.6442 40.0725 10.9172 C 40.377 10.3763 40.5393 9.7747 40.4437 9.2029 C 40.3464 8.6259 40.6737 8.1699 40.7307 7.6386 C 40.7878 7.1003 40.5121 6.5869 40.4106 6.0701 Z" fill="#7f6450"/>
				<path d="M 38.1794 10.8058 C 38.1794 10.8058 38.6637 9.7956 38.9991 10.5154 C 39.6176 11.8454 38.3977 13.6076 38.3761 13.8942 C 38.3552 14.1805 38.1794 10.8058 38.1794 10.8058 Z" fill="#fdd3ae"/>
				<path d="M 24.6833 10.8058 C 24.6833 10.8058 24.1995 9.7956 23.8636 10.5154 C 23.2456 11.8454 24.4656 13.6076 24.4871 13.8942 C 24.5076 14.1805 24.6833 10.8058 24.6833 10.8058 Z" fill="#fdd3ae"/>
				<path d="M 36.7107 16.3646 C 35.5673 16.7059 34.2258 17.1006 33.9237 17.3099 C 33.2986 17.7429 32.0642 18.1364 31.5237 18.1757 L 31.5237 18.1663 C 31.494 18.173 31.4675 18.1764 31.4409 18.1796 C 31.4381 18.1793 31.4348 18.1785 31.4314 18.1781 C 31.4283 18.1785 31.425 18.1793 31.422 18.1796 C 31.3958 18.1764 31.3691 18.173 31.3395 18.1663 L 31.3395 18.1757 C 30.799 18.1364 29.5642 17.7429 28.9395 17.3099 C 28.637 17.1006 27.2959 16.7059 26.1525 16.3646 C 26.3367 17.6055 26.5392 18.4293 26.2275 19.5242 C 27.4694 21.0366 29.512 22.6837 31.422 22.6837 C 31.4253 22.6837 31.4283 22.683 31.4314 22.683 C 31.4348 22.683 31.4377 22.6837 31.4409 22.6837 C 33.3511 22.6837 35.3931 21.0366 36.6353 19.5242 C 36.3237 18.4293 36.5264 17.6055 36.7107 16.3646 Z" fill="#eac5a2"/>
				<path d="M 38.0598 9.8176 C 37.4752 8.361 37.6351 7.5387 37.3833 6.6945 C 37.1218 5.8169 36.9313 5.463 36.4965 5.257 C 35.6619 4.8617 34.6394 5.3435 31.4779 5.2774 L 31.4314 5.2774 L 31.3853 5.2774 C 28.2238 5.3435 27.2013 4.8617 26.3667 5.257 C 25.9316 5.463 25.7412 5.8169 25.48 6.6945 C 25.228 7.5387 25.3879 8.361 24.8033 9.8176 C 23.4241 13.2526 24.7076 15.0954 25.2819 16.9628 C 25.8184 18.7058 28.2881 21.4057 31.3853 21.4057 L 31.4314 21.4057 L 31.4779 21.4057 C 34.5751 21.4057 37.0448 18.7058 37.5813 16.9628 C 38.1555 15.0954 39.439 13.2526 38.0598 9.8176 Z" fill="#fdd3ae"/>
			</g>
			<path d="M 47.4727 45.9293 L 47.4723 45.9287 C 47.4719 45.8521 47.4766 45.7817 47.4844 45.7155 C 47.4857 45.704 47.4857 45.6909 47.4871 45.6796 C 47.4982 45.6058 47.514 45.538 47.5369 45.4775 C 47.6161 45.2664 47.6871 45.0573 47.7532 44.8494 C 47.7639 44.8152 47.774 44.7813 47.7844 44.7471 C 47.9835 44.1005 48.1206 43.4666 48.2041 42.8364 C 48.2085 42.8491 48.2135 42.8618 48.2179 42.8748 L 48.2179 42.8741 L 48.2183 42.8746 C 48.5009 41.0123 48.358 39.1234 47.7626 37.3341 C 46.8198 34.5024 45.8862 32.9799 45.3993 29.8186 C 45.3575 29.5444 45.2733 29.2766 45.2157 28.9994 C 45.2147 28.9933 45.2137 28.9879 45.2126 28.9825 C 45.1797 28.8222 45.1477 28.6611 45.1174 28.4976 C 45.0925 28.363 45.0686 28.2255 45.0457 28.0883 C 45.0332 28.0142 45.0198 27.9421 45.0076 27.8674 C 44.7695 26.4958 44.6125 25.1224 44.5938 23.9092 C 44.5812 23.9058 44.5687 23.9025 44.5563 23.8991 C 44.4196 23.8624 44.2821 23.8261 44.1437 23.7899 C 44.103 23.7795 44.0623 23.7687 44.0217 23.7583 C 43.9001 23.7267 43.778 23.6953 43.6558 23.6639 C 43.5955 23.6486 43.5358 23.6335 43.4758 23.6183 C 43.3879 23.5959 43.3008 23.5739 43.2131 23.5519 C 42.5577 23.3874 41.9091 23.2291 41.3073 23.0778 C 41.1068 23.0273 40.9115 22.9777 40.7229 22.929 C 40.7384 28.5576 36.9282 33.3212 32.0778 33.7016 C 32.0303 33.7048 31.9832 33.7092 31.9355 33.7117 C 31.8632 33.7159 31.7891 33.7169 31.7153 33.7189 C 31.6211 33.7216 31.5271 33.7255 31.4314 33.7255 C 31.3357 33.7255 31.2418 33.7216 31.1475 33.7189 C 31.0737 33.7169 30.9996 33.7159 30.9272 33.7117 C 30.8798 33.7092 30.8326 33.7048 30.7852 33.7016 C 25.9346 33.3212 22.1245 28.5576 22.1399 22.929 C 21.9513 22.9777 21.756 23.0273 21.5557 23.0778 C 20.9537 23.2291 20.3051 23.3874 19.6497 23.5519 C 19.5621 23.5739 19.4749 23.5959 19.387 23.6183 C 19.327 23.6335 19.2675 23.6486 19.2072 23.6639 C 19.0848 23.6953 18.9626 23.7267 18.8411 23.7583 C 18.8007 23.7687 18.7599 23.7795 18.7191 23.7899 C 18.5807 23.8261 18.4432 23.8624 18.3065 23.8991 C 18.2941 23.9025 18.2816 23.9058 18.2692 23.9092 C 18.2502 25.1224 18.0934 26.4958 17.8552 27.8674 C 17.8431 27.9421 17.8296 28.0142 17.8171 28.0883 C 17.7943 28.2255 17.7708 28.363 17.7455 28.4976 C 17.7151 28.6611 17.6831 28.8222 17.6501 28.9825 C 17.6492 28.9879 17.6481 28.9933 17.6471 28.9994 C 17.5895 29.2766 17.5054 29.5444 17.4636 29.8186 C 16.9766 32.9799 16.043 34.5024 15.1002 37.3341 C 14.5049 39.1234 14.3621 41.0123 14.6445 42.8748 L 14.6449 42.8741 L 14.6449 42.8746 C 14.6493 42.8618 14.6543 42.8491 14.6587 42.8364 C 14.7422 43.4666 14.8794 44.1005 15.0784 44.7471 C 15.0889 44.7813 15.0989 44.8152 15.1096 44.8494 C 15.1757 45.0573 15.2468 45.2664 15.3259 45.4775 C 15.3489 45.538 15.3646 45.6058 15.3757 45.6796 C 15.3771 45.6909 15.3771 45.704 15.3784 45.7155 C 15.3862 45.7817 15.3909 45.8521 15.3906 45.9286 L 15.3903 45.9293 C 15.3724 48.4693 10.8563 56.5727 11.2161 67.289 C 11.2015 67.8342 11.1998 68.3873 11.2059 68.9446 C 17.7397 76.405 28.4855 77.1088 30.9471 77.1751 C 31.2017 77.1822 31.3678 77.1822 31.4314 77.1822 C 31.4951 77.1822 31.6611 77.1822 31.9158 77.1751 C 34.3773 77.1088 45.123 76.405 51.657 68.9446 C 51.663 68.3873 51.6614 67.8342 51.6469 67.289 C 52.0066 56.5727 47.4905 48.4693 47.4727 45.9293 Z" fill="#689f38"/>
			<path d="M 49.1006 69.8585 C 44.469 72.9607 39.0167 76.1169 31.4314 76.1738 C 23.8462 76.1169 18.394 72.9607 13.7625 69.8585 C 12.9016 69.282 12.0321 68.7588 11.2019 68.3036 C 11.2006 68.7293 11.2069 69.1595 11.217 69.5917 C 11.219 69.6738 11.2217 69.756 11.2238 69.8383 C 11.2349 70.2184 11.2498 70.6008 11.2693 70.9852 C 11.272 71.0424 11.2743 71.0993 11.2773 71.1567 C 11.3013 71.604 11.3302 72.0538 11.3649 72.5051 C 11.3676 72.5381 11.3706 72.5711 11.3733 72.6041 C 11.405 73.0125 11.4417 73.4227 11.4817 73.8338 C 11.4905 73.921 11.4993 74.0078 11.5081 74.0952 C 11.5518 74.5252 11.5989 74.9559 11.6505 75.3879 C 11.6519 75.3979 11.6532 75.4077 11.6545 75.4182 C 11.7095 75.8754 11.77 76.3336 11.834 76.7919 C 11.8435 76.8615 11.8539 76.9312 11.864 77.0012 C 11.9196 77.3911 11.9778 77.7817 12.0391 78.1713 C 12.0516 78.2477 12.063 78.3241 12.0754 78.4005 C 12.1476 78.8523 12.2227 79.3041 12.3022 79.7543 C 14.158 80.121 16.4094 80.4595 19.1047 80.696 C 24.4639 81.1671 29.7771 80.4272 31.4136 80.1645 C 31.4136 80.1594 31.4136 80.1544 31.4136 80.1493 C 31.425 79.5397 31.4314 78.9297 31.4314 78.3217 C 31.4314 78.9297 31.4381 79.5397 31.4496 80.1493 C 31.4496 80.1544 31.4496 80.1594 31.4496 80.1645 C 33.0861 80.4272 38.3994 81.1671 43.7584 80.696 C 46.4535 80.4595 48.7053 80.121 50.5607 79.7543 C 50.6401 79.3041 50.7156 78.8523 50.7876 78.4005 C 50.7998 78.3241 50.8115 78.2477 50.824 78.1713 C 50.8853 77.7817 50.9436 77.3911 50.9991 77.0012 C 51.0093 76.9312 51.0194 76.8615 51.0292 76.7919 C 51.0931 76.3336 51.1538 75.8754 51.2086 75.4182 C 51.21 75.4077 51.2109 75.3979 51.2124 75.3879 C 51.2642 74.9559 51.3114 74.5252 51.3552 74.0952 C 51.3635 74.0078 51.3723 73.921 51.3811 73.8338 C 51.4211 73.4227 51.4583 73.0125 51.4899 72.6041 C 51.4922 72.5711 51.4956 72.5381 51.4983 72.5051 C 51.5327 72.0538 51.562 71.604 51.5858 71.1567 C 51.5889 71.0993 51.5909 71.0424 51.594 70.9852 C 51.6135 70.6008 51.6283 70.2184 51.639 69.8383 C 51.6414 69.756 51.6442 69.6738 51.6458 69.5917 C 51.6563 69.1595 51.6624 68.7293 51.6614 68.3036 C 50.8311 68.7588 49.9615 69.282 49.1006 69.8585 Z" fill="#6b6a67"/>
		</g>
	</g>
</svg>