<?xml version="1.0" standalone="no"?>
<!-- Generator: Adobe Fireworks 10, Export SVG Extension by Aaron Beall (http://fireworks.abeall.com) . Version: 0.6.1  -->
<!DOCTYPE svg PUBLIC "-//W3C//DTD SVG 1.1//EN" "http://www.w3.org/Graphics/SVG/1.1/DTD/svg11.dtd">
<svg id="Untitled-Str%E1nka%201" viewBox="0 0 72 150" style="background-color:#ffffff00" version="1.1"
	xmlns="http://www.w3.org/2000/svg" xmlns:xlink="http://www.w3.org/1999/xlink" xml:space="preserve"
	x="0px" y="0px" width="72px" height="150px"
>
	<g id="Vrstva%201">
		<g>
			<g id="%u0143%EB%EE%E9%203">
				<path d="M 56.8029 46.5177 C 58.0544 38.8981 51.2683 35.1778 51.5166 24.5681 C 49.1472 23.8752 45.3441 22.3683 44.1174 21.082 C 42.3304 19.208 42.0991 17.3284 41.9583 16.0803 C 41.7512 14.2504 37.681 14.8748 36.6205 14.7729 L 36.6205 14.7487 L 36.3042 14.7476 L 36.2894 14.7476 L 36.2745 14.7476 L 35.9583 14.7487 L 35.9583 14.7729 C 34.8977 14.8748 30.8273 14.2504 30.6205 16.0803 C 30.4794 17.3284 30.248 19.208 28.4609 21.082 C 27.2346 22.3683 23.4316 23.8752 21.0619 24.5681 C 21.3101 35.1778 14.524 38.8981 15.7759 46.5177 C 16.1205 48.616 10.4058 58.8796 11.925 71.6156 C 12.0472 72.6389 25.125 69.8002 28.3811 71.1785 C 30.7057 72.1623 32.8308 77.8857 35.9583 78.2672 L 35.9583 78.2679 C 35.9617 78.2686 35.9644 78.2679 35.9678 78.2686 C 36.0739 78.281 36.1807 78.2888 36.2894 78.2881 C 36.3978 78.2888 36.5049 78.281 36.6111 78.2686 C 36.614 78.2679 36.6171 78.2686 36.6205 78.2679 L 36.6205 78.2672 C 39.7476 77.8857 41.8728 72.1623 44.1973 71.1785 C 47.4535 69.8002 60.5315 72.6389 60.6534 71.6156 C 62.1731 58.8796 56.4583 48.616 56.8029 46.5177 Z" fill="#fdd3ae"/>
				<g>
					<path d="M 60.731 64.2766 C 60.1688 63.7265 47.9893 64.3225 44.1499 65.0607 C 37.1914 66.3984 38.1246 68.4091 37.74 71.2122 C 37.5493 72.5992 36.2894 75.2967 36.2894 78.2881 C 36.2894 88.1711 37.9303 98.5749 37.7791 99.7457 C 37.1169 104.8712 38.0808 105.9775 37.9242 108.3434 C 37.7329 111.2207 36.6942 113.7475 36.9232 119.1987 C 37.2175 126.2123 39.114 134.3443 38.8427 139.0419 C 38.7797 140.1427 38.6338 141.3237 38.4287 143.5483 C 38.2283 145.7103 37.386 147.7499 37.408 148.5223 C 37.4675 150.7382 41.925 149.819 42.9081 149.7511 C 44.1023 149.667 48.5177 149.136 48.1765 147.4222 C 47.9539 146.3038 46.783 145.2252 46.5356 143.3208 C 46.3979 142.263 45.1475 139.961 45.3431 139.42 C 47.5895 133.2152 51.2616 123.6439 51.3512 117.4814 C 51.4108 113.4023 50.7726 109.9711 51.1605 107.3879 C 51.8004 103.1244 53.3463 101.3566 55.0081 97.91 C 57.272 93.2119 61.9996 75.2446 60.731 64.2766 Z" fill="#fdd3ae"/>
					<g id="left%20hand">
						<path d="M 66.0411 57.4185 C 65.4767 57.4786 64.4403 57.3087 61.8281 54.4204 C 59.0483 51.3459 54.1914 41.892 52.0864 36.5388 C 51.4468 34.9115 49.0933 33.1512 48.8353 32.6369 C 47.061 29.1 49.7477 24.5646 49.8585 24.392 C 50.4297 24.4297 50.9403 24.4591 51.5166 24.5681 C 60.3783 26.245 69.6055 36.3475 70.0035 53.0558 C 70.0264 54.0167 71.3278 56.8557 66.0411 57.4185 Z" fill="#fdd3ae"/>
						<path d="M 71.61 71.4379 C 71.6013 70.1423 70.4939 70.077 69.7277 69.8969 C 68.5984 69.6317 66.7955 70.0896 66.0566 71.2975 C 65.5803 72.6771 64.2898 72.4503 63.5229 76.5035 C 63.3175 77.5923 63.0847 78.6443 62.9712 79.6049 C 62.9585 79.6971 64.6913 79.4667 65.0557 78.4378 C 65.9395 75.9572 66.282 76.3272 66.8245 75.472 C 66.74 76.5789 67.7134 77.9671 66.484 80.5594 C 65.707 82.1978 64.662 83.1028 65.3827 83.7946 C 66.1038 84.485 69.5004 82.3835 71.22 77.7333 C 71.9314 75.8098 72.3513 73.5139 71.61 71.4379 Z" fill="#fdd3ae"/>
						<path d="M 65.4083 71.9872 C 65.8225 73.4852 68.7031 72.9456 69.3748 72.9069 C 70.047 72.8668 71.6208 72.4243 71.6565 71.2652 C 71.6777 70.5391 71.4912 69.7027 71.4985 68.8113 C 71.5851 58.4293 71.4591 54.4184 68.1138 50.5553 C 67.385 49.714 65.734 48.325 64.3719 48.98 C 62.4556 49.9005 60.6035 49.0759 60.6427 56.5562 C 60.6736 62.4772 64.1979 66.4842 65.2144 70.5127 C 65.3779 71.1612 65.4083 71.9879 65.4083 71.9872 Z" fill="#fdd3ae"/>
					</g>
				</g>
				<g>
					<path d="M 11.8479 64.2766 C 12.41 63.7265 24.5895 64.3225 28.4286 65.0607 C 35.3875 66.3984 34.4542 68.4091 34.8389 71.2122 C 35.0291 72.5992 36.2894 75.2967 36.2894 78.2881 C 36.2894 88.1711 34.6486 98.5749 34.7998 99.7457 C 35.4619 104.8712 34.4977 105.9775 34.6545 108.3434 C 34.8456 111.2207 35.8843 113.7475 35.6553 119.1987 C 35.3608 126.2123 33.4647 134.3443 33.7361 139.0419 C 33.7988 140.1427 33.9446 141.3237 34.1498 143.5483 C 34.3505 145.7103 35.1927 147.7499 35.1709 148.5223 C 35.111 150.7382 30.6538 149.819 29.6707 149.7511 C 28.4761 149.667 24.061 149.136 24.4019 147.4222 C 24.6249 146.3038 25.7955 145.2252 26.0431 143.3208 C 26.1805 142.263 27.4314 139.961 27.2354 139.42 C 24.9889 133.2152 21.3171 123.6439 21.2277 117.4814 C 21.1677 113.4023 21.8063 109.9711 21.4182 107.3879 C 20.778 103.1244 19.2324 101.3566 17.5707 97.91 C 15.3064 93.2119 10.5789 75.2446 11.8479 64.2766 Z" fill="#fdd3ae"/>
					<g id="left%20hand2">
						<path d="M 6.5374 57.4185 C 7.1018 57.4786 8.1384 57.3087 10.7502 54.4204 C 13.5305 51.3459 18.3871 41.892 20.4924 36.5388 C 21.132 34.9115 23.4851 33.1512 23.7432 32.6369 C 25.5177 29.1 22.8308 24.5646 22.72 24.392 C 22.1487 24.4297 21.6385 24.4591 21.0619 24.5681 C 12.2006 26.245 2.973 36.3475 2.5753 53.0558 C 2.552 54.0167 1.2507 56.8557 6.5374 57.4185 Z" fill="#fdd3ae"/>
						<path d="M 0.9685 71.4379 C 0.9772 70.1423 2.0846 70.077 2.8508 69.8969 C 3.9803 69.6317 5.783 70.0896 6.5219 71.2975 C 6.998 72.6771 8.2891 72.4503 9.0559 76.5035 C 9.2614 77.5923 9.4937 78.6443 9.6072 79.6049 C 9.62 79.6971 7.8876 79.4667 7.5232 78.4378 C 6.6394 75.9572 6.2965 76.3272 5.7543 75.472 C 5.8385 76.5789 4.8655 77.9671 6.0945 80.5594 C 6.8718 82.1978 7.9169 83.1028 7.196 83.7946 C 6.4746 84.485 3.0781 82.3835 1.3588 77.7333 C 0.6475 75.8098 0.2272 73.5139 0.9685 71.4379 Z" fill="#fdd3ae"/>
						<path d="M 7.1705 71.9872 C 6.7559 73.4852 3.8756 72.9456 3.2037 72.9069 C 2.5319 72.8668 0.9576 72.4243 0.9224 71.2652 C 0.9008 70.5391 1.0873 69.7027 1.0798 68.8113 C 0.9934 58.4293 1.1194 54.4184 4.4651 50.5553 C 5.1935 49.714 6.8445 48.325 8.2068 48.98 C 10.1232 49.9005 11.9752 49.0759 11.9362 56.5562 C 11.9052 62.4772 8.3806 66.4842 7.3645 70.5127 C 7.2008 71.1612 7.1705 71.9879 7.1705 71.9872 Z" fill="#fdd3ae"/>
					</g>
				</g>
				<g>
					<path d="M 45.6378 6.0358 C 45.5253 5.4863 45.7028 4.9983 45.4919 4.4632 C 45.3326 4.0583 44.8457 3.7395 44.5928 3.3928 C 44.2778 2.9596 44.1761 2.6073 43.8215 2.1896 C 43.4304 1.73 42.9249 1.6538 42.3938 1.3855 C 41.6542 1.012 41.3501 0.6255 40.5259 0.4667 C 39.1134 0.1938 37.8252 -0.0264 36.3379 0.0059 L 36.241 0.0059 C 34.7533 -0.0264 33.4653 0.1938 32.0525 0.4667 C 31.2284 0.6255 30.9243 1.012 30.1851 1.3855 C 29.6538 1.6538 29.1483 1.73 28.757 2.1896 C 28.4023 2.6073 28.3007 2.9596 27.9857 3.3928 C 27.7332 3.7395 27.2461 4.0583 27.0868 4.4632 C 26.8757 4.9983 27.0532 5.4863 26.941 6.0358 C 26.8352 6.5527 26.5486 7.0662 26.6079 7.6045 C 26.6675 8.1357 27.0083 8.5916 26.907 9.1688 C 26.8073 9.7406 26.9763 10.342 27.293 10.883 C 27.7186 11.6101 27.3718 11.9386 27.665 12.7061 C 28.0083 13.6059 28.4895 14.4844 29.1864 15.2404 C 29.9695 16.0896 31.0442 16.7869 32.319 17.0579 L 36.241 17.2173 L 36.3379 17.2173 L 40.2599 17.0579 C 41.5343 16.7869 42.6094 16.0896 43.3921 15.2404 C 44.0892 14.4844 44.5702 13.6059 44.9137 12.7061 C 45.2067 11.9386 44.8599 11.6101 45.2855 10.883 C 45.6024 10.342 45.7715 9.7406 45.6715 9.1688 C 45.5704 8.5916 45.9113 8.1357 45.9706 7.6045 C 46.0302 7.0662 45.7432 6.5527 45.6378 6.0358 Z" fill="#7f6450"/>
					<g>
						<path d="M 43.6332 10.7715 C 43.6332 10.7715 44.1178 9.7615 44.4532 10.4813 C 45.0713 11.8113 43.8518 13.5734 43.8298 13.8599 C 43.8093 14.1462 43.6332 10.7715 43.6332 10.7715 Z" fill="#fdd3ae"/>
						<path d="M 28.9453 10.7715 C 28.9453 10.7715 28.4606 9.7615 28.1255 10.4813 C 27.5074 11.8113 28.7267 13.5734 28.7485 13.8599 C 28.7694 14.1462 28.9453 10.7715 28.9453 10.7715 Z" fill="#fdd3ae"/>
						<path d="M 41.9731 16.2089 C 40.7654 16.5732 39.1199 17.0411 38.7814 17.2758 C 38.1566 17.7086 36.9219 18.1021 36.3813 18.1416 L 36.3813 18.1322 C 36.3517 18.1387 36.3251 18.1421 36.2988 18.1454 C 36.2958 18.1451 36.2925 18.1443 36.2894 18.144 C 36.286 18.1443 36.283 18.1451 36.28 18.1454 C 36.2534 18.1421 36.2271 18.1387 36.1971 18.1322 L 36.1971 18.1416 C 35.6565 18.1021 34.4222 17.7086 33.7971 17.2758 C 33.4586 17.0411 31.8134 16.5732 30.6057 16.2089 C 30.5033 17.0947 30.8485 17.2557 30.1399 18.511 C 30.9172 20.6024 33.7985 22.6495 36.28 22.6495 C 36.283 22.6495 36.286 22.6489 36.2894 22.6489 C 36.2925 22.6489 36.2954 22.6495 36.2988 22.6495 C 38.78 22.6495 41.6616 20.6024 42.439 18.511 C 41.7303 17.2557 42.0752 17.0947 41.9731 16.2089 Z" fill="#eac5a2"/>
						<path d="M 43.2209 9.7833 C 42.5791 8.3386 42.7767 7.5045 42.5134 6.6604 C 42.2395 5.7828 42.0405 5.4288 41.5858 5.2227 C 40.7131 4.8276 39.6438 5.3094 36.3379 5.2431 L 36.241 5.2431 C 32.9346 5.3094 31.8652 4.8276 30.9929 5.2227 C 30.538 5.4288 30.3392 5.7828 30.0654 6.6604 C 29.802 7.5045 29.9998 8.3386 29.3578 9.7833 C 27.6823 13.5547 28.757 15.1435 29.3578 17.0109 C 29.9189 18.754 32.0408 21.3713 36.241 21.3713 C 36.2466 21.3713 36.3322 21.3713 36.3379 21.3713 C 40.5377 21.3713 42.6599 18.754 43.2209 17.0109 C 43.8215 15.1435 44.8965 13.5547 43.2209 9.7833 Z" fill="#fdd3ae"/>
					</g>
				</g>
			</g>
			<path d="M 60.8972 66.3494 L 60.8972 66.3481 C 60.7249 58.733 58.3748 52.4611 57.3091 49.0117 C 57.3081 49.0091 57.307 49.0064 57.3064 49.0039 C 57.2185 48.7186 57.1379 48.4501 57.0696 48.2045 C 57.0673 48.1956 57.0638 48.1857 57.0615 48.1768 C 57.0554 48.1544 57.05 48.1335 57.0443 48.1119 C 57.0363 48.0829 57.0292 48.0551 57.0215 48.0267 C 57.0188 48.0169 57.0161 48.007 57.0134 47.9971 C 56.9993 47.9434 56.9844 47.889 56.9716 47.8374 C 56.9631 47.8043 56.9561 47.7726 56.9484 47.7408 C 56.9376 47.6966 56.9275 47.6539 56.9177 47.6113 C 56.9114 47.5829 56.9043 47.5536 56.8982 47.5262 C 56.8887 47.4833 56.8804 47.4418 56.8719 47.4007 C 56.8706 47.3933 56.8691 47.3866 56.8682 47.3793 C 56.8605 47.3413 56.8534 47.3043 56.8469 47.268 C 56.8453 47.2604 56.844 47.252 56.8425 47.2444 C 56.8362 47.2074 56.8298 47.1706 56.8247 47.1351 C 56.8214 47.1137 56.8193 47.0941 56.8167 47.0734 C 56.812 47.0358 56.8066 46.9987 56.8035 46.9635 C 56.8008 46.942 56.7981 46.9197 56.7965 46.8992 C 56.7937 46.8652 56.7931 46.8341 56.7925 46.8027 C 56.791 46.7739 56.7891 46.7438 56.7894 46.7167 C 56.7891 46.7088 56.7883 46.7004 56.7887 46.6928 C 56.7898 46.6298 56.7944 46.5707 56.8029 46.5177 C 56.8423 46.2781 56.8733 46.0425 56.8975 45.8101 C 56.9059 45.7279 56.9089 45.6485 56.9153 45.5671 C 56.9275 45.4182 56.9413 45.2686 56.9474 45.1223 C 56.9493 45.0735 56.9478 45.0264 56.949 44.9779 C 56.9493 44.9377 56.9497 44.8972 56.9504 44.8566 C 56.9528 44.7219 56.9575 44.5859 56.9547 44.4536 C 56.9547 44.4442 56.9534 44.4351 56.9534 44.4255 C 56.9507 44.3398 56.9449 44.2554 56.9413 44.1705 C 56.9359 44.0473 56.9325 43.9238 56.9231 43.8026 C 56.9194 43.7595 56.9133 43.7174 56.9093 43.6747 C 56.9036 43.6217 56.8982 43.5685 56.8928 43.5157 C 56.8804 43.3991 56.8699 43.2819 56.8544 43.1666 C 56.8409 43.066 56.8224 42.9673 56.8063 42.8677 C 56.7887 42.7594 56.7729 42.6503 56.7523 42.543 C 56.7412 42.4854 56.7284 42.4283 56.7156 42.3711 C 56.7073 42.3294 56.6978 42.2877 56.6887 42.2458 C 56.6661 42.1408 56.6449 42.0355 56.6194 41.9315 C 56.5955 41.8325 56.5677 41.7347 56.5415 41.6365 C 56.5142 41.5345 56.4886 41.4324 56.4594 41.3311 C 56.4446 41.2795 56.427 41.2283 56.4115 41.1771 C 56.396 41.1273 56.3809 41.0771 56.365 41.0272 C 56.3347 40.9301 56.3054 40.8327 56.2734 40.736 C 56.2374 40.6274 56.1982 40.5198 56.1603 40.4118 C 56.1289 40.3236 56.0986 40.2352 56.0659 40.1473 C 56.0245 40.0359 55.9807 39.9247 55.9373 39.8136 C 55.9047 39.7293 55.8723 39.645 55.8386 39.5611 C 55.7917 39.445 55.7429 39.3291 55.6941 39.213 C 55.6611 39.1334 55.6284 39.0539 55.5941 38.9745 C 55.5419 38.853 55.488 38.7314 55.4341 38.6097 C 55.4021 38.5372 55.3708 38.4646 55.3378 38.3919 C 55.2755 38.2529 55.2119 38.1138 55.1475 37.9745 C 55.1243 37.923 55.1011 37.8718 55.0771 37.8203 C 54.9916 37.6345 54.9043 37.4482 54.8164 37.2609 C 54.8164 37.2604 54.8162 37.2599 54.8162 37.2594 C 54.8127 37.253 54.8097 37.2463 54.8066 37.2397 C 54.6946 37.0009 54.5811 36.7595 54.4668 36.5167 C 54.2224 36.0985 54.0038 35.7146 53.834 35.3707 C 53.3164 34.3229 52.7579 32.7385 52.3032 31.0048 C 52.303 31.004 52.303 31.0029 52.3026 31.0021 C 52.2285 30.7351 52.1588 30.463 52.0928 30.1857 L 52.0928 30.1849 C 52.0914 30.1794 52.0901 30.1741 52.0887 30.1687 L 52.0887 30.1682 C 52.051 30.0084 52.0146 29.8472 51.98 29.6837 C 51.9507 29.5491 51.9241 29.4117 51.8975 29.2744 C 51.8833 29.2003 51.8678 29.1282 51.854 29.0535 C 51.854 29.053 51.8536 29.0527 51.8536 29.0524 C 51.5374 27.464 51.3451 25.8707 51.3809 24.5289 C 51.3809 24.5289 51.3809 24.5274 51.3809 24.5271 C 50.1239 24.152 48.506 23.5637 47.0776 22.9049 C 46.2605 30.5836 44.8528 33.6205 36.2944 33.7255 L 36.1975 33.7255 C 27.6392 33.6205 26.3179 30.5836 25.5012 22.9049 C 24.0725 23.5637 22.4546 24.152 21.1976 24.5271 C 21.1976 24.5274 21.1976 24.5289 21.1976 24.5289 C 21.2336 25.8707 21.0414 27.464 20.7249 29.0524 C 20.7249 29.0527 20.7245 29.053 20.7245 29.0535 C 20.7109 29.1282 20.6956 29.2003 20.6814 29.2744 C 20.6548 29.4117 20.6278 29.5491 20.5989 29.6837 C 20.5642 29.8472 20.5278 30.0084 20.4897 30.1682 L 20.4897 30.1687 C 20.4883 30.1741 20.4873 30.1794 20.486 30.1849 C 20.486 30.1852 20.486 30.1854 20.486 30.1857 C 20.4199 30.463 20.3503 30.7351 20.2761 31.0021 C 20.2759 31.0029 20.2759 31.004 20.2755 31.0048 C 19.8206 32.7385 19.2625 34.3229 18.7448 35.3707 C 18.5747 35.7146 18.3561 36.0985 18.1119 36.5167 C 17.9978 36.7595 17.8843 37.0009 17.7721 37.2397 C 17.7688 37.2463 17.7661 37.253 17.7627 37.2594 C 17.7623 37.2599 17.762 37.2604 17.762 37.2609 C 17.6741 37.4482 17.5872 37.6345 17.5013 37.8203 C 17.4774 37.8718 17.4541 37.923 17.4309 37.9745 C 17.3666 38.1138 17.303 38.2529 17.241 38.3919 C 17.208 38.4646 17.1766 38.5372 17.1447 38.6097 C 17.0905 38.7314 17.0366 38.853 16.9846 38.9745 C 16.9503 39.0539 16.9177 39.1334 16.8843 39.213 C 16.8354 39.3291 16.7866 39.445 16.7399 39.5611 C 16.7062 39.645 16.6738 39.7293 16.6411 39.8136 C 16.598 39.9247 16.554 40.0359 16.5125 40.1473 C 16.4799 40.2352 16.4495 40.3236 16.4185 40.4118 C 16.3805 40.5198 16.3414 40.6274 16.3051 40.736 C 16.2731 40.8327 16.2441 40.9301 16.2134 41.0272 C 16.1976 41.0771 16.1824 41.1273 16.167 41.1771 C 16.1515 41.2283 16.1339 41.2795 16.1191 41.3311 C 16.0901 41.4324 16.0642 41.5345 16.037 41.6365 C 16.011 41.7347 15.983 41.8325 15.9591 41.9315 C 15.9336 42.0355 15.9126 42.1408 15.8901 42.2458 C 15.881 42.2877 15.8716 42.3294 15.8632 42.3711 C 15.8503 42.4283 15.8372 42.4854 15.8264 42.543 C 15.8055 42.6503 15.7898 42.7594 15.7722 42.8677 C 15.7561 42.9673 15.7379 43.066 15.7241 43.1666 C 15.7085 43.2819 15.6981 43.3991 15.686 43.5157 C 15.6807 43.5685 15.6749 43.6217 15.6692 43.6747 C 15.6655 43.7174 15.6591 43.7595 15.6558 43.8026 C 15.6462 43.9238 15.6426 44.0473 15.6375 44.1705 C 15.6334 44.2554 15.6277 44.3398 15.6254 44.4255 C 15.6254 44.4351 15.624 44.4442 15.624 44.4536 C 15.6213 44.5859 15.6257 44.7219 15.6281 44.8566 C 15.6288 44.8972 15.6294 44.9377 15.6298 44.9779 C 15.6311 45.0264 15.6294 45.0735 15.6315 45.1223 C 15.6375 45.2686 15.651 45.4182 15.6635 45.5671 C 15.6698 45.6485 15.6729 45.7279 15.6813 45.8101 C 15.7056 46.0425 15.7366 46.2781 15.7759 46.5177 C 15.7844 46.5707 15.7887 46.6298 15.7898 46.6928 C 15.79 46.7004 15.7894 46.7088 15.7891 46.7167 C 15.7894 46.7438 15.7874 46.7739 15.7864 46.8027 C 15.7856 46.8341 15.785 46.8652 15.782 46.8992 C 15.7803 46.9197 15.778 46.942 15.7753 46.9635 C 15.7719 46.9987 15.7668 47.0358 15.7621 47.0734 C 15.7594 47.0941 15.7571 47.1137 15.754 47.1351 C 15.7487 47.1706 15.7426 47.2074 15.7362 47.2444 C 15.7349 47.252 15.7332 47.2604 15.7314 47.268 C 15.7251 47.3043 15.7183 47.3413 15.7106 47.3793 C 15.7092 47.3866 15.7079 47.3933 15.7065 47.4007 C 15.6981 47.4418 15.6901 47.4833 15.6807 47.5262 C 15.6742 47.5536 15.6671 47.5829 15.6608 47.6113 C 15.651 47.6539 15.6412 47.6966 15.6304 47.7408 C 15.6227 47.7726 15.6156 47.8043 15.6072 47.8374 C 15.594 47.889 15.5792 47.9434 15.5651 47.9971 C 15.5624 48.007 15.5601 48.0169 15.5574 48.0267 C 15.5496 48.0551 15.5425 48.0829 15.5344 48.1119 C 15.5283 48.1335 15.5229 48.1544 15.5173 48.1768 C 15.5146 48.1857 15.5115 48.1956 15.5092 48.2045 C 15.4404 48.4501 15.36 48.7186 15.2721 49.0039 L 15.2698 49.0117 C 14.2041 52.4611 11.854 58.733 11.6812 66.3481 L 11.6812 66.3494 C 11.6681 66.9407 11.6647 67.538 11.6792 68.1446 C 12.6448 69.5212 13.6636 70.7075 14.7153 71.7308 C 18.2483 74.9434 20.7308 77.3773 34.0659 77.3773 C 35.4047 77.1384 37.1742 77.1384 38.5129 77.3773 C 51.8477 77.3773 54.3304 74.9434 57.863 71.7308 C 58.9149 70.7075 59.9341 69.5212 60.8997 68.1446 C 60.9141 67.538 60.9104 66.9407 60.8972 66.3494 Z" fill="#689f38"/>
			<path d="M 60.8972 66.4053 C 59.5707 66.6766 56.7173 67.9762 53.9583 69.8242 C 49.2849 72.9547 43.9858 76.156 36.2894 76.156 C 28.593 76.156 23.2938 72.9547 18.6201 69.8242 C 15.8611 67.9762 13.0082 66.6766 11.6812 66.4053 C 11.5023 70.0878 11.8638 74.3375 12.502 78.5297 C 14.6581 79.2405 18.3628 80.1702 23.9624 80.662 C 29.3228 81.1331 34.6367 80.3929 36.2719 80.1308 C 36.283 79.5353 36.2954 79.5353 36.3069 80.1308 C 37.942 80.3929 43.2556 81.1331 48.6165 80.662 C 54.2159 80.1702 57.9207 79.2405 60.0769 78.5297 C 60.7151 74.3375 61.0764 70.0878 60.8972 66.4053 Z" fill="#6b6a67"/>
		</g>
	</g>
</svg>